<svg width="319" height="100" viewBox="0 0 319 100" fill="none" xmlns="http://www.w3.org/2000/svg">
<path d="M139.622 37.0005V62.3235H156.082V57.8919H144.433V51.5612H155.069V47.2563H144.433V41.432H156.082V37.0005H139.622Z" fill="#CECECE"/>
<path d="M119.621 41.0894H116.076V49.6232H119.621C122.394 49.6232 124.432 48.2811 124.432 45.3556C124.432 42.3183 122.394 41.0894 119.621 41.0894ZM119.874 53.7137H116.076V62.3235H111.264V37.0005H119.874C125.274 37.0005 129.497 39.4464 129.497 45.3571C129.497 51.1814 125.242 53.7137 119.874 53.7137Z" fill="#CECECE"/>
<path d="M197.869 37.0005V41.432H203.82V57.8919H197.869V62.3235H214.582V57.8919H208.631V41.432H214.582V37.0005H197.869Z" fill="#CECECE"/>
<path d="M181.726 44.8506C181.726 47.9013 179.954 48.8636 176.915 48.8636H172.863V41.0909H176.915C180.213 41.0909 181.726 42.3183 181.726 44.8506ZM186.791 44.8506C186.791 38.9399 182.739 37.0005 177.422 37.0005H168.052V62.3235H172.863V52.954H176.915C177.137 52.954 177.357 52.9495 177.576 52.942L182.479 62.3235H187.81L182.371 51.9381C185.017 50.7628 186.791 48.5046 186.791 44.8506Z" fill="#CECECE"/>
<path d="M235.693 41.4931L239.155 52.662H232.23L235.693 41.4931ZM232.528 37.0005L224.171 62.3235H229.236L230.962 56.7524H240.423L242.149 62.3235H247.214L238.857 37.0005H232.528Z" fill="#CECECE"/>
<path d="M258.077 37.0005V62.3235H274.579V57.8919H262.889V37.0005H258.077Z" fill="#CECECE"/>
<path d="M92.1841 37.0005L86.1066 51.8904L80.0291 37.0005H73.1919V62.3235H77.75V43.3908L83.5743 56.7524H83.8276H88.3857H88.6389L94.4632 43.3908V62.3235H99.0214V37.0005H92.1841Z" fill="#CECECE"/>
<path d="M44 37V41.4315H49.9509V57.8915H44V62.323H60.7132V57.8915H54.7623V41.4315H60.7132V37H44Z" fill="#CECECE"/>
</svg>
