<svg width="144" height="100" viewBox="0 0 144 100" fill="none" xmlns="http://www.w3.org/2000/svg">
<path fill-rule="evenodd" clip-rule="evenodd" d="M51.9704 22.3935L51.6706 22.6151L52.1125 23.1813C52.1527 23.2337 52.1837 23.2992 52.2054 23.3794C52.2278 23.4589 52.2237 23.5427 52.1945 23.6325C52.1649 23.7215 52.1032 23.8128 52.0085 23.907C51.9768 23.9351 51.9312 23.974 51.871 24.0231C51.9582 24.0545 52.0258 24.0788 52.0736 24.0966C52.2144 24.1459 52.339 24.1825 52.4468 24.2052C52.5554 24.2287 52.7105 24.2565 52.9122 24.2906C52.9775 24.2991 53.068 24.3117 53.1828 24.3277L53.0709 24.7846C52.8996 24.7531 52.7608 24.7242 52.6527 24.6979C52.315 24.6218 52.0114 24.5413 51.7418 24.4575C51.4939 24.3767 51.2682 24.2993 51.0636 24.2245C50.9762 24.1928 50.8596 24.1497 50.7141 24.094L50.8761 23.6642C50.988 23.7207 51.0778 23.7576 51.1449 23.7752C51.3543 23.8311 51.5179 23.8154 51.6363 23.7279C51.7083 23.6748 51.7364 23.609 51.7188 23.5296C51.7116 23.5069 51.6941 23.4718 51.6675 23.4241L51.2726 22.9092L49.9574 23.882L49.7217 23.5742L51.7338 22.0852L51.9704 22.3935ZM49.9801 23.8605L49.7544 24.0532L51.4503 25.9604L51.0701 26.2849L49.3742 24.378L48.8342 24.8388L49.7849 25.9031C49.8207 25.9436 49.8447 25.9761 49.8561 26.0025C49.8893 26.0804 49.8723 26.1482 49.8045 26.2065C49.7485 26.2545 49.5597 26.2741 49.2395 26.2658C48.9186 26.2573 48.7383 26.2297 48.6967 26.183C48.6562 26.1366 48.647 26.0832 48.6715 26.0228C48.6802 26.004 48.6965 25.9779 48.7176 25.9439L48.9568 25.7406L48.4452 25.1708L47.654 25.8466L47.3961 25.5554L49.7224 23.5696L49.9801 23.8605ZM47.6551 25.9266L47.451 26.1335L49.3099 27.8879L48.9552 28.2481L47.8599 27.209L47.2372 27.8423L47.5191 28.1101C47.5362 28.1309 47.5493 28.1462 47.5576 28.1542C47.6058 28.2261 47.603 28.2904 47.5485 28.3456C47.4887 28.4065 47.314 28.4237 47.0254 28.3977C46.7359 28.3709 46.5634 28.3316 46.5071 28.2777C46.4424 28.2169 46.4302 28.1433 46.4695 28.0587C46.4782 28.045 46.4898 28.0241 46.5061 27.9973L47.5604 26.9252L47.101 26.4892L45.5341 28.083L45.2518 27.8152L47.3721 25.6586L47.6551 25.9266ZM45.6256 28.0316L45.4371 28.2452L47.3827 29.906L47.0486 30.2837L45.1027 28.6232L44.6724 29.1086L44.376 28.8561L44.6719 28.5215C44.449 28.4227 44.2749 28.3556 44.1513 28.3208C43.7724 28.2215 43.5095 28.2558 43.3609 28.4243C43.2737 28.5223 43.2258 28.6314 43.216 28.7501C43.2062 28.8693 43.2477 28.9673 43.3385 29.0452C43.4332 29.1259 43.5591 29.1827 43.7167 29.2154C43.8395 29.2394 43.9161 29.2467 43.9468 29.2361L43.6117 29.6143C43.5204 29.6065 43.4502 29.598 43.4025 29.5874C43.2474 29.5524 43.112 29.4848 42.9975 29.3867C42.8293 29.2433 42.7514 29.064 42.764 28.8481C42.7764 28.6327 42.8757 28.4188 43.0627 28.2078C43.2397 28.0079 43.4938 27.905 43.8258 27.8983C44.0608 27.8959 44.3234 27.9419 44.6121 28.036C44.7346 28.0848 44.8559 28.1325 44.9753 28.1787L45.3292 27.7788L45.6256 28.0316ZM44.7227 29.0351L44.4736 29.3842L46.5891 30.8319L46.2964 31.2418L45.6584 30.8032C45.6522 30.9392 45.6409 31.0486 45.6246 31.1314C45.5784 31.3893 45.5028 31.5931 45.3979 31.7404C45.2655 31.9259 45.1002 32.0438 44.9018 32.0949C44.7037 32.1457 44.5161 32.1111 44.3397 31.9899C44.26 31.9352 44.2019 31.8666 44.1642 31.7848C44.1274 31.7028 44.1098 31.6112 44.1111 31.5088C43.9669 31.5506 43.8531 31.5759 43.7708 31.5844C43.5103 31.6153 43.3029 31.5787 43.1491 31.4729C43.0147 31.3806 42.9384 31.2518 42.9198 31.0873C42.9015 30.9224 42.9407 30.772 43.0369 30.6374C43.1512 30.4767 43.2856 30.3866 43.4406 30.3668C43.5957 30.3472 43.7463 30.3874 43.8936 30.489C43.9285 30.5125 43.9545 30.5308 43.97 30.5414L43.769 30.8241C43.7605 30.8092 43.7438 30.7932 43.7182 30.7756C43.6607 30.7357 43.5988 30.7153 43.5343 30.7124C43.4466 30.7083 43.38 30.7375 43.3354 30.8004C43.2928 30.8595 43.2846 30.9188 43.3104 30.9763C43.3359 31.0339 43.3811 31.0842 43.445 31.1283C43.5472 31.1984 43.6966 31.2237 43.8916 31.2039C43.9545 31.1954 44.0438 31.1776 44.1596 31.1489C44.172 31.1115 44.1839 31.0813 44.1939 31.0609C44.2264 30.9753 44.2496 30.9173 44.2638 30.8876C44.2785 30.8574 44.309 30.8094 44.3559 30.7436C44.3918 30.6931 44.4209 30.6523 44.4429 30.6209L44.8025 30.6784C44.7937 30.691 44.7829 30.706 44.7705 30.7233C44.7583 30.7403 44.7431 30.7617 44.7253 30.7862C44.6224 30.9312 44.5551 31.063 44.5228 31.1814C44.4741 31.3633 44.5151 31.4998 44.6464 31.5898C44.7426 31.6558 44.8412 31.6677 44.9433 31.6251C45.0189 31.5926 45.0811 31.5423 45.1306 31.4734C45.2178 31.3506 45.2616 31.1585 45.2624 30.8969C45.2645 30.673 45.2526 30.5429 45.2258 30.5063L44.1846 29.7902L43.9261 30.1532L43.6042 29.9316L44.4008 28.8151L44.7227 29.0351ZM42.0309 31.3187L41.7182 31.7915L41.2582 31.5049L41.5737 31.0272L42.0309 31.3187ZM42.9069 31.5918L42.741 31.8434L44.9028 33.2222L44.6255 33.6422L42.4599 32.268L42.1062 32.8035L41.777 32.5935L42.578 31.3821L42.9069 31.5918ZM42.101 32.8626L41.9607 33.1213L44.2398 34.3052L44.0033 34.7419L41.7241 33.5583L41.3883 34.1785L42.6639 34.8376C42.7124 34.8629 42.7462 34.8851 42.7666 34.9047C42.8264 34.9661 42.8357 35.036 42.7934 35.1139C42.7581 35.1784 42.5894 35.2633 42.2878 35.3685C41.9849 35.4732 41.8067 35.5112 41.7515 35.482C41.696 35.4529 41.6679 35.4064 41.6687 35.3412C41.6707 35.3205 41.6759 35.2909 41.6836 35.2519L41.8317 34.9772L41.1465 34.6253L40.6543 35.5349L40.3074 35.3538L41.7546 32.681L42.101 32.8626ZM40.0285 36.9176L39.9183 37.1846L42.311 38.127L42.1201 38.5916L40.7075 38.0312L40.3719 38.8472L40.7359 38.9917C40.7593 39.0056 40.7769 39.0146 40.7877 39.0188C40.8604 39.068 40.8816 39.1284 40.8527 39.1991C40.8202 39.2778 40.6652 39.3582 40.3871 39.4398C40.109 39.5218 39.9341 39.5491 39.8616 39.5197C39.7783 39.4872 39.7388 39.4232 39.7434 39.3304C39.7458 39.3141 39.7489 39.2907 39.7535 39.26L40.3216 37.878L39.7298 37.6433L38.8854 39.6967L38.5209 39.5525L39.665 36.7726L40.0285 36.9176ZM38.9463 39.739L38.8573 40.0248L41.3225 40.7652L41.1736 41.2437L38.7064 40.509L38.516 41.1194L38.1409 41.0069L38.5707 39.626L38.9463 39.739ZM38.5109 40.9984L38.425 41.3632L40.9381 41.9271L40.8238 42.4149L39.956 42.2186C40.0463 42.3801 40.0997 42.5519 40.1178 42.733C40.135 42.9143 40.125 43.0877 40.086 43.252C40.0017 43.6111 39.8123 43.8789 39.518 44.0556C39.2799 44.1995 39.0118 44.2645 38.7144 44.2516C38.7327 44.2248 38.7598 44.1709 38.7972 44.0909C38.8341 44.0102 38.8645 43.9201 38.8885 43.8185C38.9306 43.6392 38.9226 43.4772 38.8638 43.3348C38.7949 43.1656 38.6639 43.0593 38.4699 43.0155C38.3331 42.984 38.2183 42.9855 38.126 43.0198C38.0117 43.0645 37.9379 43.1545 37.9065 43.2892C37.8667 43.4571 37.9214 43.558 38.0705 43.592C38.1268 43.6047 38.1812 43.5915 38.2328 43.551C38.2846 43.5108 38.3164 43.4635 38.3295 43.4089L38.653 43.4883C38.6409 43.6606 38.5542 43.8069 38.394 43.9269C38.2668 44.0236 38.1164 44.0512 37.941 44.0115C37.7736 43.9735 37.6531 43.8766 37.5799 43.7197C37.5063 43.5639 37.4914 43.3931 37.5347 43.2105C37.5907 42.9713 37.7246 42.7851 37.9361 42.652C38.1479 42.5189 38.377 42.4807 38.6246 42.5364C38.8682 42.5919 39.0562 42.7304 39.188 42.9538C39.3201 43.1764 39.3593 43.4021 39.3057 43.6302C39.3493 43.6163 39.3823 43.6026 39.4055 43.5876C39.5683 43.4935 39.673 43.3464 39.721 43.1431C39.7729 42.9226 39.729 42.6809 39.5902 42.4201C39.4783 42.2124 39.3913 42.0981 39.3284 42.0764L38.312 41.8456L38.2103 42.2769L37.8278 42.1905L38.1283 40.9125L38.5109 40.9984ZM37.8082 44.4147L37.7537 44.7962L38.4742 44.8901C38.5785 44.9046 38.661 44.9285 38.7214 44.9626C38.7815 44.9956 38.8313 45.0539 38.8707 45.1367C38.8976 45.1986 38.9154 45.2791 38.9254 45.3772C38.928 45.4122 38.9288 45.4607 38.928 45.5226C39.0129 45.4803 39.0787 45.4484 39.1254 45.4275C39.2654 45.3578 39.374 45.2995 39.4525 45.2526C39.5729 45.1795 39.6988 45.1001 39.8291 45.0134C39.8773 44.9814 39.9408 44.9378 40.0195 44.8831L40.2545 45.3103C40.1255 45.3818 40.0179 45.4427 39.9323 45.4927C39.6323 45.6607 39.3717 45.801 39.1501 45.9132C38.9719 46.0012 38.7634 46.0928 38.5245 46.1874C38.4451 46.2194 38.3391 46.2615 38.206 46.3123L38.0151 45.9083C38.1255 45.8768 38.2083 45.8516 38.2622 45.8325C38.4304 45.762 38.5202 45.6875 38.531 45.6075C38.5444 45.5123 38.5176 45.445 38.4477 45.4045C38.4263 45.3937 38.3876 45.3823 38.3339 45.3712L37.6846 45.2812L37.4821 46.6946L37.0936 46.6409L37.4199 44.362L37.8082 44.4147ZM39.0655 44.1466L38.9899 44.6768L38.6004 44.8782L38.7121 44.0976L39.0655 44.1466ZM36.6125 46.8269L36.5624 47.389L36.0194 47.348L36.0697 46.7802L36.6125 46.8269ZM37.3817 46.8718L37.3763 47.1651L39.9542 47.2036L39.9454 47.7043L38.5741 47.6806L38.5648 48.2158L38.2029 48.4627L38.217 47.6749L37.3676 47.6599L37.3526 48.4826L38.0793 48.4893C38.1727 48.4908 38.2557 48.506 38.328 48.5339C38.3997 48.5618 38.458 48.6131 38.5031 48.6864C38.5377 48.7444 38.5653 48.8218 38.5875 48.9178C38.5947 48.9531 38.6017 49.0006 38.6086 49.0622C38.6878 49.0104 38.7485 48.9709 38.7921 48.9446C38.9223 48.8587 39.0235 48.7875 39.0949 48.7315C39.2058 48.6443 39.3206 48.5512 39.4396 48.4493C39.4834 48.4116 39.5415 48.3608 39.6124 48.2968L39.8987 48.6928C39.7796 48.7792 39.6805 48.8528 39.601 48.9126C39.3242 49.1149 39.083 49.2854 38.8774 49.4236C38.7111 49.532 38.5158 49.6478 38.2911 49.7706C38.216 49.8114 38.1159 49.8658 37.99 49.9326L37.7501 49.5542C37.8559 49.5098 37.9351 49.4747 37.9859 49.4489C38.1443 49.3591 38.2238 49.2743 38.2253 49.194C38.2266 49.0978 38.1913 49.0341 38.1172 49.0021C38.0943 48.9941 38.0548 48.9874 38.0001 48.9828L37.3446 48.9717L37.3185 50.3982L36.9262 50.3915L36.9891 46.8646L37.3817 46.8718ZM37.4003 51.9001L37.4202 52.1818L39.9924 52.0051L40.0277 52.5046L37.4558 52.6813L37.5012 53.3241L37.1101 53.3512L37.0784 52.909C36.8496 52.9937 36.6785 53.0669 36.5653 53.1291C36.2271 53.3215 36.0651 53.5287 36.0813 53.7508C36.0906 53.8808 36.1347 53.9912 36.2137 54.0815C36.2926 54.1728 36.3927 54.2136 36.5132 54.2053C36.6375 54.1966 36.768 54.1496 36.903 54.0635C37.0069 53.9946 37.066 53.9463 37.0802 53.9182L37.1158 54.4179C37.0459 54.4765 36.9902 54.519 36.9481 54.5446C36.8137 54.6274 36.6698 54.6736 36.5181 54.6841C36.2957 54.6994 36.1115 54.6266 35.9647 54.4654C35.8179 54.3044 35.7351 54.0841 35.7153 53.805C35.6964 53.5411 35.802 53.2916 36.0321 53.0561C36.1964 52.8912 36.4149 52.7419 36.6873 52.6077C36.8091 52.5569 36.929 52.5064 37.0466 52.4558L37.009 51.9277L37.4003 51.9001ZM37.4996 53.2534L37.6823 54.7156L38.2689 54.639C38.217 54.5985 38.1763 54.5608 38.1487 54.5257C38.0607 54.4166 38.0073 54.2933 37.9903 54.1558C37.9648 53.9507 38.0176 53.7624 38.1502 53.5922C38.2821 53.4219 38.4567 53.3233 38.6737 53.297C38.9143 53.2679 39.1798 53.3321 39.4715 53.4905C39.5685 53.5411 39.6893 53.6249 39.8335 53.7425L39.599 54.1359C39.4937 54.0488 39.4071 53.9832 39.3392 53.9417C39.1261 53.8125 38.9327 53.7585 38.7578 53.7794C38.6455 53.7934 38.5524 53.8349 38.4784 53.9061C38.4048 53.9763 38.3739 54.0637 38.3871 54.1664C38.3997 54.2691 38.4714 54.3689 38.6012 54.4659C38.6448 54.4945 38.7082 54.5317 38.7928 54.5758L40.2406 54.4009L40.3019 54.8923L39.6044 54.9761C39.6676 55.0419 39.7166 55.1134 39.752 55.1905C39.787 55.2677 39.8103 55.3497 39.8211 55.4371C39.8502 55.6696 39.7974 55.8749 39.6622 56.0537C39.527 56.2319 39.3297 56.3374 39.0699 56.3687C38.7056 56.4123 38.4348 56.2768 38.2578 55.9616C38.2013 55.8566 38.1497 55.6943 38.1025 55.4766L38.4838 55.3141C38.4776 55.3618 38.4766 55.4021 38.481 55.4364C38.4967 55.562 38.5395 55.667 38.6094 55.7516C38.7062 55.8669 38.8362 55.9149 38.999 55.8958C39.1313 55.8798 39.236 55.8313 39.3144 55.7498C39.3929 55.6685 39.4246 55.5702 39.4102 55.4552C39.3952 55.3324 39.3366 55.2271 39.2347 55.1382C39.2038 55.1105 39.153 55.0773 39.081 55.0396L37.7434 55.2011L37.9712 57.0224L37.5814 57.0696L37.1104 53.2999L37.4996 53.2534ZM38.0489 57.1998L38.1311 57.482L40.6076 56.7788L40.7469 57.2548L38.2699 57.958L38.4673 58.6334L39.851 58.2366C39.9036 58.2219 39.9441 58.2147 39.9728 58.2147C40.0589 58.2188 40.1147 58.2624 40.1394 58.347C40.1606 58.4174 40.0987 58.5936 39.9558 58.8751C39.8121 59.1576 39.7107 59.3061 39.6506 59.3229C39.5907 59.3402 39.5373 59.3252 39.4912 59.2783C39.4785 59.262 39.4607 59.237 39.4383 59.2035L39.3511 58.9045L38.6099 59.1196L38.8986 60.1095L38.5212 60.2155L37.672 57.3056L38.0489 57.1998ZM37.8551 58.3302L38.0078 58.8196C37.8608 59.0038 37.7563 59.1539 37.6944 59.269C37.5033 59.6268 37.4529 59.949 37.5422 60.2353C37.5979 60.4146 37.69 60.5356 37.8198 60.597C37.9493 60.6584 38.0963 60.6646 38.2606 60.6151C38.3386 60.5911 38.4211 60.5547 38.5078 60.5039C38.5356 60.4876 38.5694 60.466 38.6102 60.4381L38.507 60.1077L38.8823 59.9947L38.9683 60.2699L41.4321 59.5241L41.581 60.0027L39.1171 60.7484L39.3075 61.3593L38.9319 61.4723L38.74 60.856C38.6933 60.8906 38.6546 60.9174 38.6244 60.936C38.5276 60.9945 38.4348 61.0379 38.3455 61.0645C38.0878 61.1421 37.8513 61.115 37.6371 60.9827C37.422 60.8503 37.2682 60.6344 37.1746 60.3331C37.0887 60.0579 37.1042 59.748 37.2221 59.4037C37.3064 59.1501 37.4359 58.897 37.6101 58.6434C37.6918 58.5392 37.7736 58.4345 37.8551 58.3302ZM39.3062 61.39L39.4163 61.6568L41.8044 60.7033L41.9953 61.1674L39.607 62.1211L39.8502 62.7134L39.4865 62.8576L39.2696 62.3295L38.6342 63.8108L38.2519 63.5902L39.1419 62.0205L38.9422 61.5347L39.3062 61.39ZM41.3826 62.7596L40.0927 63.3235L40.3621 63.9173L40.9773 63.6485L41.3707 64.5158C41.3932 64.5646 41.4192 64.5986 41.4489 64.6175C41.4788 64.6352 41.5234 64.6316 41.5843 64.6051C41.663 64.5705 41.7045 64.5065 41.7081 64.4124C41.7099 64.3399 41.7017 64.294 41.6836 64.2718C41.6065 64.1588 41.5454 64.0528 41.501 63.955C41.4708 63.8882 41.452 63.8423 41.4455 63.8188C41.4388 63.7935 41.4249 63.7404 41.4045 63.657L41.6958 63.4223C41.6963 63.4432 41.7053 63.4839 41.7218 63.5438C41.7381 63.6039 41.7574 63.6576 41.7798 63.7073C41.8495 63.8611 41.922 63.9599 41.9968 64.0027C42.0721 64.0455 42.1593 64.045 42.2594 64.0014C42.3489 63.9625 42.3966 63.889 42.4036 63.7806C42.4067 63.704 42.3907 63.6248 42.3536 63.5446C42.2708 63.3617 42.085 63.1767 41.7946 62.9894C41.6978 62.926 41.5603 62.8491 41.3826 62.7596ZM39.7661 62.6032L39.8879 62.871L42.2408 61.836L42.4457 62.288L41.8596 62.5506C42.0167 62.6621 42.1376 62.7549 42.2223 62.8266C42.48 63.0457 42.65 63.2463 42.7323 63.4287C42.8215 63.6253 42.8502 63.8245 42.8179 64.0275C42.7795 64.2542 42.6763 64.4039 42.5091 64.4771C42.3801 64.5339 42.2352 64.5344 42.0734 64.4789C42.0837 64.5205 42.0569 64.6123 41.9927 64.7537C41.9099 64.9283 41.8077 65.0423 41.6862 65.0952C41.5789 65.1424 41.4718 65.1483 41.3637 65.1133C41.2559 65.079 41.1798 65.0103 41.1334 64.909L40.8212 64.2204L40.5532 64.3376L41.235 65.8405L40.8767 65.9973L39.4086 62.7588L39.7661 62.6032ZM41.3318 65.8186L41.4739 66.0703L43.726 64.838L43.9731 65.2758L41.721 66.5081L42.0365 67.0666L41.6934 67.2536L41.3356 66.6201L40.8132 68.1875L40.4704 67.9721L41.2221 66.4183L40.9892 66.0056L41.3318 65.8186ZM41.5343 66.9722L41.6798 67.2286L41.6583 68.438L41.2634 68.4024L41.5343 66.9722ZM43.8273 66.7271L45.1812 67.3922L44.9817 67.8227L43.5351 66.886L43.8273 66.7271ZM43.3596 67.1399L42.45 67.6981L42.9283 68.4496L43.7187 67.9646C43.8276 67.8975 43.8998 67.817 43.9347 67.7231C43.9687 67.6297 43.9507 67.5255 43.8779 67.4118C43.8139 67.3112 43.7169 67.2348 43.5872 67.1832C43.4891 67.1443 43.413 67.1298 43.3596 67.1399ZM42.028 67.0344L42.1861 67.2833L44.3701 65.9364L44.6335 66.3515L43.7966 66.8721C43.9589 66.9454 44.0918 67.0627 44.1957 67.2265C44.349 67.468 44.3758 67.7195 44.2749 67.9816C44.198 68.1792 44.0969 68.3165 43.9708 68.3936L43.1953 68.8693L43.5088 69.3623L43.176 69.5666L41.6952 67.2387L42.028 67.0344ZM46.0172 70.504L45.0578 71.3231L45.5423 71.8702C45.5575 71.7944 45.5895 71.716 45.6391 71.637C45.6878 71.5581 45.7559 71.483 45.8416 71.4098C45.9917 71.2813 46.1447 71.2209 46.3007 71.2271C46.4566 71.2336 46.6118 71.2957 46.7674 71.4121C46.9196 71.1807 46.9108 70.9516 46.7419 70.7251C46.6493 70.6209 46.5296 70.5484 46.383 70.5087C46.236 70.4689 46.1147 70.4674 46.0172 70.504ZM44.5319 70.7282L44.7277 70.9493L46.6696 69.2838L47.0037 69.6618L46.4643 70.1225C46.576 70.1547 46.6732 70.1952 46.7571 70.243C46.8402 70.2907 46.9199 70.3565 46.9936 70.4406C47.2065 70.6807 47.3014 70.9575 47.2792 71.2723C47.2573 71.5859 47.1231 71.8473 46.8783 72.0562C46.8541 72.0057 46.8221 71.9574 46.7811 71.9112C46.6939 71.8119 46.5987 71.7487 46.4958 71.7198C46.3601 71.6832 46.2313 71.7165 46.1104 71.8199C46.0428 71.8777 45.9899 71.9574 45.9504 72.0598C45.9115 72.1622 45.8955 72.2353 45.9035 72.2788L46.5417 72.9996L46.2453 73.2527L44.2347 70.9815L44.5319 70.7282ZM46.4785 72.9377L46.674 73.1441L48.5598 71.4177L48.9073 71.7835L47.0218 73.5101L47.4691 73.9812L47.1825 74.2441L46.8747 73.9206C46.7514 74.128 46.665 74.291 46.6168 74.4081C46.4769 74.767 46.4842 75.0283 46.6389 75.1911C46.7295 75.286 46.8345 75.3448 46.9539 75.3667C47.0736 75.3884 47.1771 75.3585 47.2661 75.2777C47.3569 75.1941 47.4283 75.077 47.4776 74.9266C47.5147 74.8085 47.53 74.7342 47.5227 74.7037L47.8705 75.0706C47.8532 75.1588 47.8372 75.2264 47.8215 75.2721C47.7696 75.4196 47.6871 75.5447 47.5759 75.6466C47.4131 75.7955 47.2235 75.853 47.0063 75.8184C46.7891 75.7833 46.5832 75.6639 46.389 75.4588C46.2053 75.2656 46.1271 75.0063 46.1552 74.6813C46.1774 74.4515 46.2512 74.2002 46.3771 73.9275C46.4393 73.813 46.4996 73.7 46.559 73.5878L46.1911 73.2003L46.4785 72.9377ZM47.4301 73.877L47.645 74.0805L49.4314 72.2554L49.8068 72.6111L48.6093 73.8114L49.3633 74.5263C49.4056 74.5611 49.4405 74.5835 49.4681 74.5939C49.5576 74.6253 49.6376 74.5975 49.7077 74.5095C49.8478 74.3331 49.9327 74.0581 49.9603 73.6848C49.9835 73.36 49.9796 73.1833 49.9489 73.1534L50.4068 73.1797C50.4148 73.4596 50.412 73.6786 50.3988 73.8365C50.356 74.3183 50.2399 74.6565 50.0495 74.8492C49.9058 74.9955 49.7482 75.0675 49.5772 75.0652C49.4415 75.0646 49.3329 75.026 49.2516 74.9488L48.3413 74.0849L48.0075 74.4244L49.6342 75.967L49.3615 76.2441L47.1575 74.1535L47.4301 73.877ZM49.708 75.9234L49.9995 76.1559L50.4522 75.5971C50.4945 75.5468 50.5515 75.5011 50.6251 75.4609C50.6983 75.4206 50.7827 75.4039 50.8781 75.4108C50.9731 75.4168 51.0786 75.4537 51.1939 75.5213C51.23 75.5445 51.2793 75.5796 51.342 75.6244C51.3523 75.5334 51.3595 75.463 51.3659 75.4137C51.3804 75.2672 51.3868 75.1395 51.3835 75.0311C51.3801 74.9228 51.3703 74.768 51.3549 74.5675C51.3476 74.5028 51.3378 74.4138 51.3265 74.3011L51.8045 74.2962C51.8148 74.4672 51.82 74.6065 51.82 74.7159C51.8264 75.0561 51.8205 75.3654 51.8027 75.642C51.7833 75.8981 51.7609 76.1321 51.7361 76.3449C51.7263 76.4363 51.7121 76.5578 51.6923 76.7094L51.2287 76.6597C51.2579 76.5394 51.272 76.445 51.2733 76.3764C51.278 76.1628 51.2228 76.0106 51.108 75.9193C51.0378 75.8633 50.9658 75.853 50.8921 75.8883C50.8714 75.9012 50.8402 75.926 50.8002 75.9629L50.3875 76.4639L51.6665 77.4813L51.4196 77.7805L49.4621 76.2237L49.708 75.9234ZM51.6507 77.4377L51.9005 77.6095L53.3791 75.5354L53.7968 75.8228L52.323 77.8997L52.8552 78.2663L52.6305 78.5823L51.4261 77.7537L51.6507 77.4377ZM52.7801 78.2604L53.0948 78.4389L54.379 76.2425L54.8207 76.4928L54.1778 77.5974L54.807 77.9541L55.0067 77.6154C55.042 77.5778 55.0729 77.5553 55.0995 77.5486C55.1524 77.5339 55.2058 77.5424 55.26 77.5729C55.3134 77.6033 55.3835 77.7715 55.4682 78.0762C55.5538 78.3819 55.5801 78.5612 55.5489 78.614C55.512 78.6767 55.4661 78.7131 55.4114 78.7221C55.3952 78.7257 55.3701 78.7234 55.3358 78.7118L55.0214 78.5338L54.6365 79.1999C54.6254 79.2417 54.6197 79.2747 54.6197 79.2964C54.6264 79.3712 54.6682 79.43 54.7461 79.4738C54.7967 79.5025 54.8511 79.51 54.9104 79.4945C54.9685 79.4787 55.0139 79.445 55.0448 79.3916C55.0611 79.3647 55.076 79.3229 55.092 79.2657C55.098 79.2473 55.1055 79.2195 55.1127 79.1841L55.4171 79.3567C55.408 79.4406 55.3866 79.5125 55.3513 79.5719C55.2636 79.722 55.1429 79.8136 54.9899 79.8489C54.8361 79.883 54.6814 79.8564 54.5255 79.7679C54.353 79.6709 54.241 79.5419 54.1891 79.381C54.1358 79.221 54.1541 79.0655 54.2418 78.9166L54.605 78.298L53.9709 77.9387L53.5362 78.6891L53.9219 78.9079L53.7258 79.2414L52.5843 78.5937L52.7801 78.2604Z" fill="#CECECE"/>
<path fill-rule="evenodd" clip-rule="evenodd" d="M103.151 58.7271L104.103 58.6064L103.363 57.9971L103.151 58.7271ZM102.998 58.7501L103.247 57.896L103.037 57.7272C102.968 57.6715 102.906 57.6364 102.854 57.6217C102.785 57.6021 102.726 57.6156 102.678 57.6604C102.65 57.687 102.611 57.7621 102.565 57.8854L102.497 57.866L102.733 57.063L102.8 57.0813C102.788 57.1713 102.804 57.2531 102.847 57.3253C102.891 57.3983 102.995 57.5026 103.158 57.6372L104.869 59.055L104.86 59.0888L102.587 59.3914C102.371 59.4211 102.231 59.4554 102.166 59.4946C102.116 59.525 102.077 59.5766 102.05 59.6478L101.983 59.6285L102.325 58.4596L102.392 58.4787L102.377 58.5267C102.35 58.6206 102.344 58.6905 102.36 58.7356C102.371 58.7671 102.395 58.7885 102.432 58.7988C102.454 58.8053 102.477 58.8079 102.502 58.8066C102.514 58.8071 102.564 58.8022 102.654 58.7919L102.998 58.7501ZM105.382 57.1004L104.491 56.9613L104.502 56.8932C104.76 56.8496 104.964 56.7557 105.117 56.611C105.27 56.4678 105.363 56.2994 105.394 56.1046C105.424 55.9194 105.395 55.7566 105.309 55.6166C105.223 55.4767 105.089 55.3663 104.907 55.2856C104.724 55.2046 104.534 55.1489 104.334 55.1182C104.091 55.08 103.873 55.0748 103.682 55.1024C103.491 55.13 103.342 55.1997 103.235 55.3119C103.13 55.4239 103.062 55.5655 103.035 55.7378C103.026 55.7979 103.022 55.8596 103.026 55.9246C103.028 55.9901 103.036 56.0572 103.05 56.1278L103.577 56.2091C103.675 56.2248 103.742 56.2274 103.773 56.2187C103.804 56.2101 103.835 56.1859 103.866 56.148C103.896 56.11 103.916 56.0603 103.926 56.0004L103.936 55.9364L104.005 55.9473L103.81 57.1533L103.741 57.1429C103.75 57.0506 103.747 56.9853 103.734 56.9459C103.72 56.9074 103.693 56.8739 103.652 56.8476C103.63 56.8331 103.573 56.8187 103.48 56.8045L102.955 56.723C102.908 56.5532 102.881 56.3794 102.872 56.2019C102.863 56.0247 102.873 55.8441 102.903 55.6594C102.94 55.4233 103.005 55.2327 103.096 55.0872C103.186 54.942 103.293 54.8174 103.418 54.715C103.544 54.6131 103.679 54.5388 103.823 54.4918C104.008 54.4335 104.207 54.4198 104.42 54.4536C104.801 54.5127 105.1 54.6938 105.32 54.9969C105.54 55.3003 105.618 55.6506 105.553 56.0494C105.534 56.173 105.507 56.2821 105.471 56.3778C105.452 56.4299 105.409 56.5122 105.343 56.626C105.277 56.7385 105.243 56.8066 105.239 56.828C105.234 56.8623 105.241 56.8958 105.262 56.9288C105.283 56.9626 105.327 56.9969 105.394 57.032L105.382 57.1004ZM105.904 53.4468L105.834 53.4421C105.829 53.3588 105.809 53.293 105.774 53.2466C105.726 53.1808 105.589 53.0743 105.364 52.9244L104.478 52.3177L103.86 52.2751C103.728 52.2661 103.645 52.2666 103.612 52.2779C103.58 52.2888 103.549 52.3143 103.522 52.3522C103.495 52.3914 103.478 52.4433 103.473 52.5104L103.464 52.6502L103.394 52.6453L103.495 51.2381L103.565 51.243L103.555 51.3745C103.55 51.4483 103.559 51.5074 103.582 51.5528C103.597 51.5861 103.626 51.6131 103.668 51.6346C103.696 51.6508 103.774 51.6627 103.903 51.6717L104.416 51.7068L105.552 51.1921C105.776 51.089 105.909 51.0154 105.951 50.9698C105.992 50.9246 106.017 50.8617 106.024 50.7815L106.093 50.7861L106.008 51.9887L105.938 51.9841L105.942 51.9304C105.947 51.858 105.94 51.8064 105.92 51.7757C105.901 51.7452 105.88 51.73 105.856 51.7282C105.811 51.7254 105.694 51.7661 105.505 51.8523L104.626 52.2475L105.365 52.7521C105.546 52.8767 105.667 52.9414 105.728 52.9456C105.762 52.9481 105.791 52.9339 105.816 52.9032C105.85 52.8635 105.874 52.7872 105.888 52.6762L105.959 52.6809L105.904 53.4468ZM106.098 50.191L105.197 50.2062L105.195 50.1371C105.441 50.0499 105.626 49.9229 105.751 49.7545C105.876 49.5876 105.937 49.4052 105.934 49.2081C105.93 49.0208 105.874 48.8658 105.764 48.7422C105.654 48.6189 105.504 48.5333 105.31 48.485C105.117 48.4365 104.918 48.4141 104.715 48.4174C104.47 48.4218 104.255 48.4538 104.071 48.5137C103.888 48.5738 103.753 48.6674 103.668 48.7964C103.583 48.9243 103.544 49.0758 103.547 49.2494C103.547 49.3103 103.555 49.3722 103.57 49.4356C103.583 49.4996 103.604 49.5646 103.63 49.6312L104.163 49.6216C104.263 49.6198 104.328 49.6116 104.358 49.5974C104.386 49.5832 104.413 49.5543 104.437 49.512C104.46 49.4692 104.471 49.4168 104.47 49.3562L104.469 49.2912L104.538 49.2904L104.56 50.5114L104.49 50.5127C104.482 50.4206 104.469 50.3568 104.448 50.3197C104.428 50.2844 104.395 50.2565 104.349 50.2374C104.325 50.2266 104.267 50.2224 104.173 50.224L103.641 50.2333C103.565 50.0736 103.507 49.9077 103.467 49.7338C103.427 49.5615 103.405 49.3817 103.402 49.1947C103.397 48.9563 103.427 48.7572 103.49 48.5985C103.554 48.4401 103.637 48.299 103.743 48.1768C103.848 48.055 103.968 47.9588 104.101 47.8876C104.274 47.7988 104.468 47.7516 104.683 47.7477C105.068 47.741 105.395 47.8685 105.666 48.1298C105.936 48.3911 106.074 48.7226 106.082 49.1261C106.084 49.2507 106.076 49.3631 106.058 49.464C106.049 49.5182 106.021 49.6067 105.976 49.73C105.931 49.8523 105.909 49.925 105.91 49.9469C105.91 49.9818 105.924 50.013 105.95 50.0421C105.976 50.0715 106.026 50.0976 106.097 50.1216L106.098 50.191ZM105.679 45.828C105.647 45.5996 105.504 45.4428 105.249 45.3561C105.042 45.2867 104.755 45.2769 104.392 45.327C103.959 45.3871 103.65 45.5052 103.465 45.683C103.335 45.8071 103.283 45.9631 103.31 46.1507C103.328 46.2763 103.375 46.3777 103.448 46.4533C103.543 46.55 103.682 46.616 103.867 46.6522C104.05 46.6878 104.283 46.6865 104.565 46.6473C104.901 46.6013 105.147 46.5361 105.304 46.4517C105.461 46.3671 105.568 46.2735 105.624 46.1687C105.678 46.065 105.697 45.951 105.679 45.828ZM105.796 45.7882C105.868 46.1832 105.796 46.5216 105.581 46.8041C105.366 47.0863 105.07 47.254 104.693 47.3056C104.372 47.35 104.076 47.2973 103.806 47.1457C103.446 46.9455 103.234 46.622 103.17 46.1749C103.106 45.7276 103.211 45.3595 103.486 45.0716C103.702 44.8448 103.978 44.7076 104.313 44.6614C104.69 44.6096 105.022 44.6924 105.309 44.9088C105.596 45.1265 105.759 45.4193 105.796 45.7882ZM103.951 44.3359L103.055 44.4576L102.505 42.2915L102.573 42.275L102.593 42.356C102.611 42.4264 102.639 42.4806 102.674 42.5172C102.7 42.5443 102.735 42.5608 102.781 42.568C102.813 42.5734 102.892 42.5618 103.017 42.5311L104.651 42.131C104.778 42.1001 104.855 42.0735 104.884 42.0526C104.913 42.0317 104.933 41.9989 104.947 41.9522C104.961 41.9061 104.959 41.8491 104.941 41.7802L104.921 41.6994L104.989 41.6829L105.32 42.9841L105.251 43.0004L105.225 42.8946C105.206 42.8237 105.179 42.7697 105.143 42.7326C105.117 42.7063 105.083 42.6885 105.036 42.6802C105.003 42.6745 104.924 42.6867 104.8 42.7174L103.218 43.1046C103.09 43.1363 103.011 43.1631 102.98 43.1856C102.949 43.2088 102.93 43.2431 102.923 43.2895C102.92 43.3226 102.933 43.3958 102.963 43.5109L103.014 43.7142C103.047 43.8442 103.098 43.9461 103.166 44.0217C103.234 44.0962 103.326 44.1532 103.442 44.1914C103.558 44.2298 103.721 44.2538 103.931 44.2618L103.951 44.3359ZM104.456 40.0884C104.387 39.8679 104.221 39.7353 103.956 39.6886C103.74 39.6514 103.455 39.6862 103.104 39.7918C102.686 39.9174 102.4 40.082 102.245 40.2858C102.137 40.4279 102.111 40.5904 102.167 40.7713C102.205 40.893 102.267 40.9859 102.352 41.0491C102.461 41.1298 102.61 41.1737 102.798 41.1814C102.984 41.1881 103.214 41.151 103.486 41.0695C103.81 40.972 104.043 40.8695 104.185 40.7627C104.327 40.6547 104.416 40.5455 104.455 40.4341C104.493 40.3227 104.493 40.2073 104.456 40.0884ZM104.565 40.0319C104.699 40.4106 104.681 40.756 104.514 41.0677C104.347 41.3801 104.081 41.5906 103.718 41.6997C103.407 41.7931 103.106 41.7866 102.815 41.6783C102.428 41.5354 102.167 41.2485 102.033 40.8172C101.899 40.3848 101.944 40.0053 102.169 39.6788C102.346 39.4213 102.597 39.2438 102.921 39.1463C103.284 39.0372 103.626 39.0682 103.944 39.2379C104.262 39.4082 104.469 39.6726 104.565 40.0319ZM103.287 36.7181L102.318 38.4694L103.332 38.0469C103.474 37.9878 103.56 37.9285 103.594 37.8678C103.637 37.7855 103.63 37.6803 103.572 37.5523L103.637 37.5255L103.967 38.2899L103.902 38.3167C103.847 38.2243 103.802 38.166 103.767 38.1408C103.733 38.1152 103.688 38.1028 103.634 38.1031C103.581 38.1036 103.498 38.1276 103.387 38.1735L101.424 38.9915L101.4 38.9335L102.685 36.5504L101.186 37.1749C101.051 37.2317 100.973 37.2995 100.952 37.3808C100.931 37.4613 100.937 37.5412 100.97 37.6191L100.994 37.6738L100.93 37.7007L100.575 36.8798L100.64 36.853C100.695 36.9802 100.761 37.0575 100.835 37.0859C100.908 37.1143 101.007 37.1027 101.133 37.0506L102.796 36.3574L102.838 36.2806C102.879 36.2063 102.901 36.1459 102.905 36.0997C102.908 36.0541 102.895 35.9955 102.868 35.9243L102.932 35.8972L103.287 36.7181ZM100.715 34.5973L100.015 34.9628C99.8997 35.0232 99.8306 35.0668 99.8086 35.0942C99.7862 35.1223 99.7748 35.1602 99.7722 35.2074C99.7699 35.2559 99.7862 35.3106 99.8202 35.3733L99.8597 35.4465L99.7983 35.4788L99.1702 34.3182L99.231 34.2862L99.2705 34.3595C99.3058 34.424 99.3458 34.4699 99.3902 34.4967C99.4214 34.5173 99.4599 34.5251 99.5063 34.5202C99.5385 34.5189 99.6115 34.4884 99.7256 34.4286L101.212 33.6526C101.328 33.5923 101.397 33.5489 101.42 33.5213C101.443 33.4942 101.454 33.4566 101.456 33.4088C101.458 33.3614 101.442 33.3059 101.409 33.244L101.369 33.17L101.43 33.1377L102.059 34.2983L101.997 34.3306L101.957 34.257C101.922 34.1928 101.883 34.1469 101.839 34.1198C101.807 34.0999 101.769 34.0912 101.722 34.0948C101.689 34.0958 101.615 34.1275 101.502 34.1864L100.862 34.5209L101.286 35.3047L101.927 34.9706C102.042 34.9102 102.111 34.8659 102.134 34.8395C102.156 34.8119 102.168 34.7748 102.17 34.7263C102.171 34.6778 102.155 34.6231 102.122 34.5602L102.082 34.4877L102.145 34.4554L102.772 35.615L102.71 35.6475L102.672 35.5755C102.636 35.51 102.596 35.4641 102.553 35.438C102.521 35.4182 102.483 35.4097 102.435 35.4127C102.402 35.4148 102.329 35.4452 102.215 35.5043L100.729 36.2808C100.613 36.3412 100.545 36.3853 100.522 36.4121C100.499 36.4392 100.487 36.4771 100.486 36.5251C100.484 36.5744 100.5 36.6291 100.534 36.6918L100.573 36.7637L100.511 36.7957L99.8832 35.6359L99.9446 35.6039L99.9843 35.6764C100.019 35.7411 100.06 35.7876 100.103 35.8139C100.134 35.8335 100.173 35.8417 100.22 35.8387C100.252 35.8371 100.325 35.8067 100.44 35.7471L101.139 35.3815L100.715 34.5973ZM101.216 32.6558L100.473 33.1305L100.433 33.0699C100.597 32.9007 100.689 32.7208 100.711 32.53C100.732 32.3401 100.69 32.1654 100.586 32.0078C100.499 31.8763 100.381 31.7806 100.231 31.7202C100.081 31.6593 99.9268 31.6425 99.7686 31.6717C99.5664 31.7081 99.3672 31.7886 99.172 31.9129C98.98 32.0354 98.8206 32.1706 98.6945 32.3189C98.5681 32.4678 98.4976 32.6179 98.485 32.7711C98.4705 32.9241 98.5178 33.0815 98.6248 33.2437C98.7123 33.3763 98.8222 33.4793 98.9542 33.5515C99.0868 33.6248 99.2643 33.6758 99.4911 33.7063L99.3051 33.8242C99.1015 33.786 98.929 33.721 98.7878 33.6286C98.6457 33.5368 98.5193 33.4055 98.406 33.2342C98.2577 33.0093 98.1716 32.7799 98.1478 32.5465C98.1241 32.3138 98.1674 32.0945 98.276 31.8899C98.3859 31.6856 98.5374 31.5205 98.7319 31.397C98.9367 31.2667 99.1655 31.195 99.4191 31.1839C99.6722 31.1715 99.9087 31.2223 100.128 31.3366C100.348 31.4506 100.524 31.6093 100.657 31.81C100.754 31.9586 100.826 32.1353 100.87 32.3419C100.895 32.4618 100.916 32.5346 100.933 32.5606C100.955 32.5939 100.985 32.6146 101.027 32.6233C101.068 32.6316 101.118 32.6226 101.176 32.5962L101.216 32.6558ZM98.591 29.2749L97.7694 29.9049L97.8011 29.9443C97.9012 30.07 98.0134 30.1301 98.1396 30.1252C98.2642 30.12 98.4117 30.0648 98.5807 29.9603L98.6251 30.0158L97.5682 30.8263L97.5238 30.7709C97.6303 30.671 97.7044 30.5738 97.7487 30.4807C97.7918 30.3857 97.807 30.3047 97.7926 30.2353C97.7782 30.167 97.7335 30.0847 97.6579 29.9905L97.0904 30.4267C96.9792 30.5119 96.9147 30.5678 96.8977 30.5965C96.8799 30.6246 96.8735 30.6581 96.8781 30.6953C96.8817 30.7327 96.9062 30.7796 96.9524 30.8364L97.046 30.9543C97.1926 31.1395 97.3543 31.2543 97.5305 31.2989C97.7059 31.3441 97.903 31.3216 98.1205 31.2337L98.163 31.2873L97.4508 31.6908L96.0887 29.9781L96.1434 29.9356L96.1963 30.0013C96.242 30.0589 96.2889 30.0968 96.3374 30.1159C96.3712 30.1311 96.4109 30.1321 96.4558 30.12C96.4881 30.1128 96.5549 30.0702 96.6565 29.9923L97.9838 28.9744C98.0751 28.9042 98.1287 28.8585 98.146 28.8374C98.1726 28.801 98.1845 28.7626 98.1834 28.7223C98.1811 28.6633 98.1553 28.6024 98.104 28.5376L98.0516 28.4724L98.1063 28.4295L99.4258 30.088L98.8289 30.5457L98.7853 30.4905C98.9088 30.3501 98.9821 30.2307 99.0038 30.1306C99.027 30.0308 99.0167 29.9229 98.971 29.8063C98.9462 29.7377 98.8737 29.6294 98.754 29.479L98.591 29.2749ZM97.8104 28.0717L97.3115 28.5449L97.2643 28.4971C97.351 28.3586 97.4028 28.249 97.4191 28.1669C97.4356 28.0841 97.4289 27.999 97.3989 27.9097C97.3824 27.8602 97.3321 27.7939 97.2493 27.7096L97.117 27.5749L95.6961 28.9223C95.6017 29.0118 95.5478 29.0721 95.5344 29.1044C95.5204 29.1377 95.5199 29.1771 95.532 29.2233C95.5429 29.2703 95.5741 29.3193 95.6246 29.3704L95.6837 29.4307L95.6337 29.4782L94.7024 28.5309L94.7524 28.4835L94.8115 28.5438C94.8626 28.5962 94.9145 28.6295 94.9648 28.6434C95.0004 28.6548 95.0401 28.6519 95.0837 28.6357C95.1149 28.6259 95.1763 28.5766 95.2697 28.4886L96.6906 27.1418L96.5616 27.0102C96.4414 26.889 96.3289 26.8247 96.2218 26.8201C96.0722 26.8111 95.9198 26.8624 95.7634 26.9707L95.7142 26.9202L96.2128 26.4473L97.8104 28.0717ZM94.3361 24.8621L93.66 25.6536L93.7172 25.7002C93.8029 25.7717 93.8857 25.8171 93.9615 25.8367C94.0392 25.8568 94.122 25.8519 94.2125 25.8225C94.3023 25.7929 94.3977 25.732 94.4973 25.6383L94.5474 25.6799L93.7206 26.6472L93.6708 26.606C93.8088 26.4073 93.8609 26.2461 93.83 26.1215C93.7977 25.9959 93.7304 25.8904 93.6274 25.8052L93.5704 25.7585L93.0671 26.3475C92.9828 26.4465 92.9366 26.5126 92.9263 26.5464C92.916 26.5807 92.9201 26.6204 92.9361 26.6645C92.9526 26.7099 92.9882 26.7553 93.0429 26.8007L93.1079 26.8544L93.063 26.9065L92.0378 26.0622L92.0827 26.0095L92.1477 26.0629C92.2048 26.1096 92.2594 26.1372 92.3108 26.1465C92.3477 26.154 92.3861 26.1468 92.4269 26.1254C92.4568 26.112 92.5125 26.057 92.5958 25.959L93.6772 24.6926C93.7618 24.5941 93.8096 24.5283 93.8199 24.495C93.831 24.4617 93.8274 24.4223 93.8109 24.3776C93.7936 24.3322 93.7585 24.2868 93.7038 24.2419L93.6388 24.1883L93.6837 24.1354L95.338 25.4988L94.866 26.0516L94.8066 26.0028C94.9046 25.862 94.9519 25.7374 94.95 25.6296C94.9477 25.521 94.9052 25.4113 94.8218 25.2988C94.7762 25.238 94.6751 25.1425 94.5192 25.0138L94.3361 24.8621ZM92.3397 23.1845C92.1545 23.0432 91.9411 23.0282 91.6971 23.1391C91.4982 23.2302 91.2851 23.4193 91.0591 23.7036C90.7898 24.0418 90.6518 24.3377 90.6438 24.5918C90.6386 24.7698 90.7119 24.9173 90.8638 25.0339C90.9657 25.1121 91.071 25.1536 91.1773 25.1572C91.3142 25.1619 91.4615 25.1144 91.6197 25.0146C91.7765 24.915 91.9437 24.755 92.1186 24.5353C92.3275 24.2729 92.4578 24.0575 92.5112 23.8903C92.5649 23.7216 92.5752 23.5813 92.5406 23.4683C92.5066 23.3561 92.4392 23.2614 92.3397 23.1845ZM92.3954 23.077C92.7269 23.3117 92.9144 23.6045 92.9593 23.9546C93.0042 24.3046 92.91 24.6263 92.6758 24.9207C92.4756 25.1724 92.2259 25.336 91.9238 25.4116C91.5235 25.5127 91.1427 25.4245 90.7803 25.1466C90.4178 24.8683 90.2331 24.5316 90.2267 24.1377C90.222 23.8271 90.3234 23.54 90.5316 23.2779C90.7655 22.9836 91.0638 22.8169 91.4231 22.7769C91.784 22.7372 92.1072 22.8371 92.3954 23.077ZM88.6303 20.8659L88.1252 21.7613L88.1696 21.7853C88.3118 21.8625 88.4389 21.8748 88.5527 21.8222C88.6657 21.7688 88.7795 21.662 88.8937 21.5008L88.9559 21.5351L88.3063 22.6867L88.2431 22.6526C88.3012 22.5192 88.3311 22.4019 88.3339 22.2984C88.337 22.1952 88.3177 22.115 88.2769 22.0564C88.2362 21.9992 88.1626 21.9401 88.0561 21.8826L87.7066 22.5022C87.6379 22.6229 87.6021 22.6996 87.5972 22.7326C87.592 22.7651 87.5995 22.7981 87.6178 22.8309C87.6369 22.8639 87.6777 22.8969 87.7422 22.9325L87.8763 23.0052C88.0853 23.1188 88.279 23.1626 88.4591 23.136C88.6391 23.1102 88.8109 23.014 88.9768 22.8494L89.0372 22.8822L88.5419 23.5271L86.6066 22.4736L86.6406 22.4137L86.7147 22.4535C86.7797 22.4896 86.839 22.5058 86.8909 22.505C86.9285 22.5058 86.9644 22.4919 87.0015 22.4627C87.0281 22.4442 87.072 22.3799 87.1349 22.2688L87.9514 20.8226C88.0076 20.7227 88.0393 20.6603 88.046 20.6345C88.0564 20.5909 88.0522 20.5507 88.0347 20.5141C88.0092 20.4604 87.9609 20.4145 87.8887 20.3747L87.8144 20.3345L87.8484 20.2739L89.7226 21.2944L89.355 21.9447L89.2931 21.9109C89.3506 21.7345 89.3702 21.5962 89.3516 21.4959C89.3328 21.3953 89.2799 21.2993 89.1919 21.2098C89.1419 21.1564 89.032 21.0844 88.8617 20.9921L88.6303 20.8659ZM87.5002 20.0126L87.2182 20.6348L87.1563 20.608C87.1844 20.4478 87.1904 20.3275 87.1741 20.245C87.1579 20.1622 87.1187 20.0856 87.0573 20.0144C87.0227 19.9744 86.951 19.9316 86.8421 19.8841L86.6677 19.808L85.8649 21.5789C85.8113 21.6971 85.7847 21.7724 85.7842 21.808C85.7842 21.8436 85.7986 21.8808 85.8273 21.9187C85.8554 21.9589 85.9026 21.992 85.9694 22.0211L86.0471 22.0554L86.0189 22.1184L84.7944 21.5826L84.8225 21.5201L84.9006 21.5537C84.9682 21.5833 85.0291 21.5952 85.0807 21.59C85.1176 21.5877 85.1532 21.5704 85.1878 21.5392C85.213 21.5183 85.2515 21.4502 85.3038 21.3341L86.1074 19.5627L85.9379 19.4886C85.7803 19.4198 85.6513 19.402 85.5499 19.4368C85.4078 19.484 85.286 19.5877 85.1823 19.745L85.1173 19.7169L85.3998 19.0942L87.5002 20.0126ZM82.6334 17.994L83.8667 18.4588L83.8414 18.5236L83.7805 18.5004C83.6879 18.4655 83.6206 18.4516 83.5786 18.4568C83.536 18.4627 83.5004 18.48 83.4733 18.5076C83.446 18.5354 83.4049 18.617 83.3531 18.7501L82.904 19.8996C82.8217 20.1103 82.783 20.2553 82.7894 20.3358C82.7951 20.416 82.8263 20.4919 82.882 20.5656C82.9391 20.6384 83.0237 20.6959 83.1367 20.7385C83.2656 20.7875 83.3871 20.8001 83.4996 20.7774C83.6134 20.7547 83.7124 20.7019 83.7971 20.618C83.8809 20.5349 83.9725 20.3686 84.0702 20.1186L84.4448 19.1615C84.4856 19.0565 84.5036 18.9779 84.4982 18.9239C84.4941 18.8705 84.4781 18.8287 84.451 18.7986C84.4084 18.7519 84.3383 18.7111 84.242 18.6742L84.2668 18.6097L85.0941 18.9216L85.0688 18.9858L85.0198 18.9673C84.952 18.942 84.8911 18.9335 84.8364 18.9435C84.7812 18.9536 84.7335 18.9807 84.693 19.0266C84.6633 19.0583 84.6298 19.1215 84.5924 19.217L84.2431 20.1088C84.1355 20.3848 84.0388 20.5773 83.9549 20.6851C83.8693 20.7934 83.7349 20.8719 83.5517 20.9206C83.3688 20.9699 83.1524 20.9469 82.9045 20.8535C82.6979 20.7759 82.549 20.6882 82.4572 20.5907C82.3323 20.4596 82.2609 20.3237 82.242 20.1844C82.2242 20.0451 82.2523 19.8784 82.3287 19.6824L82.7781 18.5334C82.831 18.3985 82.857 18.3123 82.8534 18.2731C82.8511 18.2341 82.8351 18.1983 82.8049 18.1647C82.775 18.1307 82.7089 18.0956 82.6081 18.0587L82.6334 17.994ZM82.2188 17.8696L82.0274 18.5246L81.9624 18.5063C81.9675 18.3432 81.9567 18.2233 81.9283 18.1444C81.9007 18.0646 81.8512 17.994 81.7805 17.9315C81.7408 17.8967 81.6626 17.8639 81.5489 17.8314L81.3652 17.7801L80.8211 19.6439C80.7848 19.7675 80.7688 19.8467 80.7739 19.8815C80.7793 19.9166 80.7987 19.9514 80.8322 19.9857C80.866 20.0208 80.9179 20.0482 80.9875 20.0673L81.0698 20.0902L81.0502 20.1562L79.7617 19.7933L79.7807 19.7278L79.8628 19.7502C79.934 19.7703 79.9959 19.7745 80.0462 19.7613C80.0826 19.7541 80.1153 19.7322 80.1447 19.6966C80.1672 19.6723 80.1953 19.5993 80.2309 19.4778L80.7752 17.6137L80.597 17.5634C80.4316 17.5167 80.3016 17.5167 80.2061 17.5655C80.072 17.6315 79.9657 17.7504 79.8857 17.921L79.8174 17.9016L80.0088 17.2464L82.2188 17.8696ZM79.0626 19.5449L79.0481 19.6119L77.7394 19.3385L77.7534 19.2712L77.8367 19.2887C77.9084 19.3042 77.9703 19.3031 78.0201 19.2872C78.056 19.2768 78.0869 19.2531 78.1127 19.2149C78.1321 19.1894 78.1563 19.1148 78.1826 18.9905L78.533 17.373C78.5598 17.2477 78.5698 17.1672 78.5629 17.1329C78.5567 17.098 78.5348 17.0658 78.4989 17.0333C78.4625 17.0013 78.4091 16.9778 78.339 16.9631L78.2564 16.9458L78.2709 16.8782L79.58 17.1512L79.5656 17.219L79.4828 17.2012C79.4103 17.1865 79.3487 17.1865 79.2994 17.2028C79.263 17.2136 79.2318 17.2363 79.2044 17.274C79.1848 17.3003 79.1619 17.3756 79.1345 17.4987L78.785 19.1164C78.7576 19.2423 78.7471 19.3217 78.7546 19.3565C78.762 19.3914 78.784 19.4244 78.8201 19.4564C78.8564 19.4891 78.9093 19.5129 78.9795 19.5268L79.0626 19.5449ZM77.856 16.7764L77.7717 17.453L77.7044 17.4447C77.6835 17.2835 77.6538 17.1667 77.6133 17.0926C77.5731 17.0183 77.5124 16.9562 77.4327 16.9056C77.3884 16.8772 77.3061 16.8568 77.1877 16.8424L76.9986 16.8197L76.7587 18.7444C76.7424 18.8726 76.739 18.9523 76.7494 18.9861C76.7597 19.0199 76.7852 19.0514 76.8237 19.0797C76.8626 19.1097 76.9178 19.1282 76.99 19.1368L77.0744 19.1476L77.0664 19.2152L75.7361 19.0547L75.7441 18.9869L75.8292 18.9972C75.9027 19.006 75.9636 19 76.0113 18.9797C76.0467 18.9668 76.0753 18.9399 76.0995 18.9002C76.1173 18.8731 76.1333 18.797 76.1488 18.6706L76.39 16.7464L76.2058 16.724C76.0351 16.7036 75.9055 16.7235 75.8199 16.7859C75.6979 16.8718 75.6115 17.0057 75.5599 17.1865L75.4892 17.1783L75.5738 16.5016L77.856 16.7764ZM74.966 16.3502L74.9284 17.1876L74.8499 17.1821C74.8293 16.9698 74.7522 16.7954 74.6183 16.6574C74.4847 16.5199 74.3358 16.4454 74.1702 16.4343C74.042 16.4255 73.938 16.4518 73.8583 16.5145C73.7783 16.5764 73.7358 16.6512 73.7296 16.7387C73.7255 16.7939 73.7353 16.8447 73.7587 16.8896C73.7905 16.95 73.8446 17.0119 73.9218 17.0733C73.9775 17.1184 74.1093 17.1997 74.3149 17.3178C74.6031 17.4829 74.7947 17.6328 74.8902 17.7682C74.9838 17.9034 75.0254 18.0538 75.0138 18.2197C74.9988 18.4292 74.9021 18.6043 74.7256 18.7439C74.5484 18.8829 74.3309 18.9441 74.0755 18.927C73.9948 18.9211 73.9189 18.9077 73.8488 18.8868C73.7786 18.8659 73.6906 18.8293 73.5856 18.7774C73.5268 18.749 73.4781 18.7338 73.4396 18.7307C73.4069 18.7281 73.3713 18.7377 73.3339 18.7601C73.2954 18.7826 73.2632 18.8182 73.2366 18.8672L73.1675 18.8625L73.2356 17.915L73.3039 17.9199C73.3411 18.19 73.4324 18.4 73.5802 18.5507C73.7278 18.7023 73.8931 18.7839 74.0747 18.7965C74.2159 18.806 74.3301 18.7764 74.4194 18.7065C74.5081 18.6371 74.5564 18.5522 74.5633 18.4526C74.5675 18.3936 74.5559 18.3353 74.527 18.2772C74.4989 18.2199 74.4553 18.1632 74.3926 18.109C74.3309 18.0551 74.22 17.9821 74.06 17.89C73.8356 17.7618 73.6752 17.655 73.5797 17.5686C73.4832 17.4832 73.4118 17.3895 73.364 17.2884C73.3161 17.1873 73.2962 17.0782 73.3042 16.9605C73.3189 16.7614 73.4064 16.5958 73.5655 16.4652C73.7249 16.3355 73.9182 16.2782 74.1454 16.2942C74.2282 16.2996 74.3082 16.3143 74.3848 16.3396C74.4429 16.3587 74.513 16.3912 74.5938 16.4369C74.6763 16.4828 74.7346 16.5068 74.7687 16.5091C74.8002 16.5114 74.8275 16.5032 74.8476 16.4848C74.8683 16.4668 74.8884 16.4206 74.9103 16.3463L74.966 16.3502ZM71.1417 16.2759L72.4047 17.8356V16.7544C72.4047 16.6038 72.383 16.5019 72.3391 16.4485C72.2788 16.377 72.1774 16.3424 72.0347 16.3448V16.2756H72.8804V16.3448C72.7723 16.3579 72.7003 16.376 72.6621 16.3977C72.6247 16.4191 72.5961 16.4544 72.5754 16.5032C72.5545 16.5517 72.5442 16.636 72.5442 16.7544V18.8484H72.48L70.749 16.7544V18.3536C70.749 18.4978 70.7823 18.5953 70.8504 18.6453C70.9172 18.6969 70.9949 18.7222 71.081 18.7222H71.1414V18.7906H70.2333V18.7225C70.3745 18.7214 70.473 18.6928 70.5282 18.6373C70.5834 18.5816 70.6115 18.4872 70.6115 18.3538V16.5785L70.5561 16.5114C70.5024 16.4451 70.4544 16.4015 70.4129 16.3796C70.3714 16.3587 70.3115 16.3476 70.2333 16.3448V16.2756L71.1417 16.2759ZM70.0817 18.7395L70.0866 18.8076L68.7518 18.8992L68.7472 18.8308L68.8315 18.8251C68.9056 18.8197 68.9647 18.8027 69.008 18.7735C69.0395 18.7547 69.0619 18.7227 69.0769 18.6796C69.0887 18.6495 69.0903 18.5716 69.0818 18.4449L68.9639 16.7957C68.9546 16.667 68.9425 16.5878 68.926 16.5563C68.9097 16.5248 68.8795 16.499 68.8362 16.4779C68.7926 16.4575 68.7343 16.4487 68.6631 16.4534L68.5782 16.4593L68.5736 16.3904L69.9083 16.2989L69.9132 16.3675L69.8289 16.3734C69.7546 16.3786 69.6952 16.3953 69.6521 16.4242C69.6207 16.4441 69.5975 16.4753 69.5815 16.5184C69.5701 16.5488 69.5688 16.6275 69.5776 16.7531L69.6952 18.4026C69.704 18.5316 69.7166 18.6102 69.7334 18.642C69.7504 18.6732 69.7804 18.6995 69.824 18.7204C69.8683 18.7418 69.9258 18.7498 69.997 18.7452L70.0817 18.7395ZM65.504 16.8047L66.9997 18.1511L66.8276 17.0833C66.8034 16.9342 66.766 16.837 66.7144 16.7911C66.6432 16.7299 66.5374 16.7111 66.3974 16.7353L66.3863 16.6675L67.2216 16.5375L67.2324 16.6056C67.1274 16.6355 67.0593 16.6636 67.0253 16.691C66.992 16.7183 66.9685 16.757 66.9566 16.8086C66.944 16.8602 66.9473 16.9445 66.9659 17.0617L67.2997 19.1298L67.2358 19.1393L65.1924 17.3379L65.4473 18.9167C65.47 19.0591 65.5187 19.1502 65.5938 19.1899C65.6676 19.2304 65.7486 19.2436 65.834 19.2299L65.8935 19.2209L65.9046 19.2882L65.0074 19.4277L64.9966 19.3602C65.1356 19.338 65.228 19.2946 65.2742 19.2307C65.3196 19.1675 65.3325 19.0699 65.3111 18.9381L65.0286 17.185L64.9633 17.1269C64.8999 17.0694 64.8454 17.0343 64.8005 17.0191C64.7569 17.0047 64.6953 17.0028 64.6182 17.0124L64.6073 16.9435L65.504 16.8047ZM63.5213 18.9198L62.9122 18.1905L62.7775 19.1293L63.5213 18.9198ZM63.6221 19.0346L62.7528 19.2792L62.718 19.5438C62.7071 19.6318 62.7092 19.7015 62.7241 19.7525C62.744 19.8209 62.7866 19.8629 62.8511 19.8784C62.8887 19.889 62.9736 19.8805 63.1047 19.8537L63.1237 19.9192L62.3057 20.1498L62.2864 20.0838C62.3702 20.0464 62.4326 19.9899 62.4721 19.9153C62.5124 19.8405 62.5469 19.6994 62.5766 19.4909L62.8936 17.3142L62.9282 17.3047L64.3942 19.0369C64.5341 19.2013 64.6372 19.2995 64.7061 19.3326C64.759 19.3576 64.8235 19.3627 64.8999 19.348L64.9187 19.4138L63.7284 19.7492L63.7093 19.6831L63.7578 19.6692C63.8538 19.6424 63.9175 19.6101 63.948 19.573C63.9694 19.5469 63.975 19.5155 63.9642 19.4793C63.958 19.4582 63.948 19.4373 63.934 19.4174C63.9278 19.4069 63.8974 19.3674 63.8404 19.2985L63.6221 19.0346ZM62.1827 20.1421L62.2031 20.2076L60.9235 20.5917L60.9032 20.5267L60.9842 20.5017C61.0551 20.4805 61.1082 20.4508 61.1438 20.4132C61.1707 20.3871 61.1859 20.3515 61.1895 20.3059C61.1944 20.2741 61.1784 20.1978 61.1407 20.0763L60.6483 18.4952C60.6101 18.3724 60.5789 18.2968 60.5562 18.2705C60.5335 18.2432 60.4981 18.2248 60.4507 18.214C60.4035 18.2034 60.3452 18.2081 60.2768 18.2287L60.1953 18.253L60.1749 18.1869L61.4544 17.8031L61.4756 17.8686L61.3938 17.8928C61.3234 17.9142 61.2697 17.9437 61.2341 17.9813C61.2078 18.0081 61.1918 18.0432 61.1867 18.0894C61.182 18.1211 61.1993 18.1978 61.2364 18.3182L61.7289 19.8996C61.7676 20.0229 61.7975 20.0972 61.8215 20.1245C61.8445 20.1511 61.8806 20.1694 61.9273 20.1808C61.9755 20.1918 62.0333 20.1867 62.1019 20.1663L62.1827 20.1421ZM58.2974 19.0627L59.0455 20.8817C59.0855 20.9784 59.1147 21.0349 59.1322 21.0532C59.1505 21.0707 59.1735 21.0816 59.1998 21.0842C59.2385 21.0893 59.2875 21.0787 59.3473 21.0555C59.5421 20.9779 59.6641 20.8543 59.7129 20.6825C59.78 20.4508 59.7377 20.1493 59.5844 19.7781C59.4614 19.4783 59.3156 19.2583 59.1461 19.1177C59.0128 19.008 58.8763 18.9518 58.7367 18.9482C58.6382 18.9456 58.4919 18.9835 58.2974 19.0627ZM58.2969 21.6205L58.2706 21.5568L58.35 21.5253C58.4184 21.4979 58.4674 21.4662 58.495 21.4304C58.5237 21.394 58.5381 21.3553 58.5404 21.3109C58.5415 21.2831 58.5167 21.2088 58.4674 21.0878L57.8367 19.5552C57.7879 19.4357 57.7505 19.3638 57.725 19.3393C57.7 19.3142 57.6641 19.299 57.6151 19.2923C57.5668 19.2848 57.5088 19.2949 57.443 19.3209L57.3638 19.3527L57.3378 19.2882L58.3998 18.8672C58.6839 18.7545 58.9279 18.7021 59.1312 18.7093C59.3806 18.7183 59.5994 18.7944 59.7849 18.9394C59.9719 19.0844 60.1133 19.2755 60.211 19.5126C60.2786 19.6764 60.3137 19.8379 60.317 19.9976C60.3201 20.1573 60.298 20.2984 60.2495 20.422C60.2017 20.546 60.1334 20.6575 60.0441 20.7558C59.9543 20.8551 59.8359 20.9508 59.6871 21.0449C59.6216 21.0865 59.5122 21.1381 59.359 21.1992L58.2969 21.6205ZM55.4613 20.2605L57.3078 21.0867L56.8082 20.1237C56.7385 19.9888 56.6714 19.9081 56.608 19.8802C56.5216 19.8433 56.4153 19.8578 56.2894 19.9233L56.2574 19.8622L57.0107 19.485L57.0427 19.5467C56.9526 19.6068 56.8966 19.6548 56.8727 19.6909C56.8494 19.7265 56.8399 19.7708 56.8443 19.8237C56.8482 19.8761 56.8778 19.9561 56.9328 20.0616L57.9009 21.9269L57.8431 21.9553L55.3331 20.8621L56.0719 22.2866C56.1387 22.4153 56.2138 22.487 56.2971 22.5017C56.3802 22.5179 56.4615 22.5056 56.5386 22.4669L56.5922 22.44L56.624 22.5012L55.8155 22.9062L55.7833 22.8448C55.9089 22.7816 55.9832 22.7119 56.0069 22.6376C56.0301 22.5634 56.0118 22.4669 55.9499 22.3479L55.1293 20.7661L55.0491 20.731C54.9704 20.6957 54.9075 20.6786 54.8608 20.6779C54.8141 20.6773 54.7555 20.6944 54.6846 20.7266L54.6526 20.6655L55.4613 20.2605ZM55.6958 22.9328L55.7327 22.9913L54.5979 23.6876L54.5605 23.6295L54.633 23.5852C54.6957 23.5467 54.7395 23.5042 54.7635 23.4593C54.7823 23.4273 54.7872 23.3888 54.7798 23.344C54.7759 23.312 54.74 23.2421 54.6717 23.1345L53.7791 21.7322C53.7097 21.6233 53.6607 21.5591 53.631 21.5384C53.6024 21.5181 53.5637 21.5093 53.5144 21.5108C53.4659 21.5129 53.411 21.5317 53.3498 21.5694L53.2779 21.6133L53.2407 21.5547L54.3753 20.8584L54.4127 20.9167L54.3407 20.9609C54.278 20.9993 54.2336 21.0416 54.2097 21.0867C54.1913 21.119 54.1851 21.1572 54.1921 21.2028C54.1965 21.2353 54.2329 21.3047 54.3005 21.4118L55.1928 22.8144C55.2627 22.9237 55.3109 22.9877 55.3411 23.0078C55.3708 23.0274 55.4105 23.0362 55.4585 23.0352C55.5077 23.0334 55.5627 23.0145 55.6231 22.9771L55.6958 22.9328Z" fill="#CECECE"/>
<path fill-rule="evenodd" clip-rule="evenodd" d="M89.4825 78.7014L88.9216 77.7475L88.829 77.8003C88.6771 77.8865 88.5713 77.9636 88.5125 78.0335C88.4534 78.104 88.4227 78.187 88.4214 78.2814C88.4209 78.3782 88.4532 78.4829 88.5205 78.5975C88.6183 78.7638 88.73 78.8637 88.8558 78.8977C88.9812 78.9328 89.1314 78.9001 89.3075 78.8005L89.4825 78.7014ZM88.8551 77.6334L88.496 77.0231C88.4268 76.9049 88.375 76.8355 88.3435 76.8134C88.31 76.7914 88.27 76.7808 88.2225 76.7839C88.1748 76.7873 88.1 76.8172 87.9984 76.875L87.9638 76.8159L89.0986 76.1723L89.1332 76.2316C89.0313 76.2899 88.9673 76.3377 88.9417 76.3779C88.9157 76.4169 88.9049 76.4563 88.9072 76.4948C88.9105 76.5324 88.9461 76.6106 89.0158 76.7282L89.8467 78.1416C89.9158 78.2595 89.9669 78.3294 89.9992 78.3521C90.0324 78.3741 90.0722 78.3831 90.1204 78.3797C90.1679 78.3779 90.2419 78.3475 90.3435 78.2897L90.3789 78.3495L89.3491 78.9333C89.0805 79.086 88.8734 79.1784 88.7279 79.213C88.5827 79.247 88.4415 79.2372 88.3051 79.1838C88.1694 79.1302 88.0618 79.0378 87.9847 78.906C87.8905 78.7455 87.8714 78.5791 87.9277 78.4071C87.964 78.2977 88.0394 78.1888 88.1549 78.0792L87.1891 77.644C87.0632 77.5883 86.9786 77.5571 86.9355 77.5501C86.8705 77.5424 86.8091 77.5532 86.748 77.5839L86.7126 77.5246L87.411 77.1286L88.7088 77.7162L88.8551 77.6334ZM90.6848 76.0975L91.5194 76.5639L91.3019 75.6404L90.6848 76.0975ZM90.5491 76.0255L91.2709 75.491L91.2072 75.2323C91.1853 75.1461 91.1585 75.0824 91.1249 75.0396C91.0813 74.9831 91.0266 74.9588 90.9603 74.9668C90.9219 74.9707 90.8456 75.0081 90.7326 75.0793L90.6905 75.0246L91.3705 74.5218L91.4126 74.5765C91.3488 74.641 91.3104 74.7156 91.3009 74.7997C91.2905 74.8832 91.3102 75.0274 91.3579 75.232L91.8568 77.376L91.8282 77.3971L89.8274 76.2956C89.637 76.1914 89.5041 76.1362 89.428 76.1295C89.3692 76.1241 89.3073 76.1424 89.241 76.1831L89.1997 76.1282L90.1885 75.3963L90.2311 75.4505L90.1903 75.4815C90.1101 75.5398 90.0631 75.5921 90.0474 75.6373C90.0379 75.6693 90.0433 75.7007 90.0665 75.7304C90.0796 75.7479 90.0969 75.7644 90.117 75.7784C90.1269 75.7861 90.1694 75.8114 90.2481 75.8563L90.5491 76.0255ZM93.4536 76.2311L92.85 75.5723L92.9023 75.5261C93.1309 75.6512 93.3499 75.7051 93.5612 75.6871C93.7714 75.6706 93.9517 75.5965 94.1014 75.4647C94.2435 75.3388 94.3245 75.1951 94.3475 75.0329C94.3699 74.8706 94.3377 74.7027 94.2474 74.5267C94.1576 74.3518 94.0449 74.1898 93.9089 74.0425C93.7443 73.8632 93.5795 73.7247 93.4126 73.6285C93.2462 73.5312 93.0857 73.493 92.931 73.5145C92.7767 73.5361 92.6348 73.6055 92.503 73.7221C92.4571 73.7626 92.4145 73.8088 92.3756 73.8609C92.3353 73.913 92.2989 73.9711 92.2649 74.0345L92.6211 74.4228C92.6885 74.4958 92.7378 74.5391 92.7677 74.5515C92.7976 74.5639 92.8373 74.5649 92.8851 74.5535C92.9333 74.5425 92.9805 74.5172 93.0272 74.4762L93.0759 74.4331L93.1219 74.4834L92.1981 75.3011L92.1514 75.2508C92.2172 75.1835 92.2572 75.1317 92.2724 75.0927C92.2855 75.0543 92.2855 75.0114 92.2706 74.9653C92.2631 74.9405 92.228 74.8943 92.1648 74.8265L91.8093 74.4375C91.8823 74.2765 91.9716 74.1248 92.0784 73.9809C92.1842 73.8379 92.3087 73.7038 92.4499 73.5782C92.6299 73.4187 92.8025 73.3104 92.9661 73.2534C93.1299 73.1961 93.2934 73.1657 93.4559 73.1636C93.6187 73.1618 93.7712 73.1871 93.9133 73.2397C94.0944 73.3094 94.2577 73.4221 94.4022 73.5789C94.6594 73.8599 94.7767 74.1862 94.753 74.5579C94.7295 74.9294 94.5655 75.2506 94.26 75.5199C94.1659 75.6032 94.0748 75.6716 93.9853 75.7239C93.9373 75.7531 93.8511 75.7905 93.7276 75.8382C93.604 75.8849 93.5331 75.9161 93.5166 75.9303C93.4905 75.9538 93.4753 75.9842 93.4704 76.0229C93.4647 76.0619 93.4766 76.1155 93.5057 76.1844L93.4536 76.2311ZM95.1918 72.2832L96.0968 72.6002L95.7193 71.7275L95.1918 72.2832ZM95.0458 72.2354L95.6621 71.5859L95.554 71.3418C95.5168 71.2611 95.4784 71.2023 95.4389 71.1662C95.3861 71.1174 95.3278 71.1032 95.264 71.1226C95.2261 71.1324 95.1583 71.1829 95.0592 71.2717L95.0086 71.2247L95.5891 70.6133L95.6401 70.6603C95.5878 70.7354 95.5635 70.8153 95.5695 70.8992C95.5749 70.9833 95.619 71.1226 95.7026 71.3155L96.5722 73.3416L96.5479 73.3677L94.3826 72.6245C94.1767 72.5546 94.0364 72.5226 93.9597 72.5288C93.9009 72.5334 93.8431 72.562 93.7861 72.6131L93.7348 72.5664L94.5799 71.6769L94.6305 71.7239L94.5951 71.7603C94.5273 71.8315 94.4906 71.8918 94.4834 71.9385C94.4788 71.9718 94.4904 72.0015 94.5188 72.027C94.5342 72.0425 94.5544 72.0551 94.5768 72.0649C94.5871 72.0706 94.6346 72.0894 94.7197 72.1199L95.0458 72.2354ZM98.7665 70.7583L96.737 70.7753L97.6048 71.4412C97.7258 71.5338 97.8208 71.5794 97.8901 71.5787C97.9851 71.5756 98.0754 71.5188 98.161 71.4069L98.2165 71.4494L97.6956 72.1036L97.6399 72.0608C97.6962 71.9692 97.7261 71.9024 97.7318 71.8601C97.7374 71.8181 97.7276 71.7737 97.7008 71.728C97.6742 71.6818 97.6133 71.6223 97.5184 71.549L95.838 70.2599L95.8775 70.2109L98.6233 70.1601L97.3412 69.1754C97.2248 69.0869 97.1266 69.0524 97.0438 69.0738C96.9615 69.0937 96.8936 69.1385 96.8407 69.2054L96.8033 69.252L96.7486 69.21L97.3071 68.5073L97.3623 68.5496C97.2762 68.6592 97.2388 68.7526 97.2491 68.83C97.2602 68.9069 97.3182 68.9863 97.4253 69.0689L98.85 70.1616L98.9375 70.1603C99.0244 70.1601 99.0882 70.1493 99.1315 70.1304C99.1733 70.1116 99.2195 70.0719 99.27 70.0133L99.3252 70.0556L98.7665 70.7583ZM97.4614 68.4031L97.4036 68.3649L98.152 67.2752L98.2095 67.3134L98.1618 67.3826C98.1203 67.4429 98.0978 67.4997 98.0945 67.5505C98.0908 67.5863 98.1017 67.624 98.1283 67.6619C98.1445 67.6893 98.2062 67.7388 98.313 67.81L99.7091 68.7348C99.8179 68.8065 99.8891 68.8457 99.925 68.8522C99.9596 68.8586 99.999 68.8519 100.043 68.831C100.086 68.8099 100.129 68.7704 100.169 68.7119L100.217 68.6427L100.275 68.6814L99.5264 69.7711L99.4676 69.7326L99.5156 69.6635C99.5569 69.6031 99.5798 69.5472 99.5834 69.4958C99.5865 69.4589 99.576 69.422 99.5512 69.3828C99.5342 69.3552 99.4717 69.306 99.3655 69.2353L97.9693 68.3107C97.8605 68.239 97.7893 68.199 97.7542 68.1931C97.7183 68.1872 97.6789 68.1946 97.6355 68.215C97.5906 68.2362 97.5489 68.2754 97.5086 68.3339L97.4614 68.4031ZM100.302 66.152L99.6023 65.7862C99.4862 65.7261 99.4114 65.6944 99.3758 65.6918C99.3394 65.6892 99.301 65.7009 99.2597 65.7261C99.2176 65.7514 99.18 65.7945 99.1467 65.8569L99.107 65.9304L99.0451 65.8985L99.674 64.7379L99.7354 64.7701L99.6952 64.8434C99.6606 64.9081 99.6446 64.9659 99.6464 65.0175C99.6464 65.0544 99.6621 65.0897 99.6918 65.1251C99.7109 65.1506 99.7777 65.1932 99.892 65.2525L101.379 66.0292C101.494 66.0891 101.57 66.1208 101.605 66.1244C101.64 66.1278 101.679 66.1159 101.72 66.0912C101.761 66.0656 101.8 66.022 101.833 65.9596L101.873 65.8861L101.935 65.9181L101.306 67.0787L101.244 67.0464L101.284 66.9732C101.319 66.9092 101.335 66.8504 101.333 66.7995C101.333 66.7621 101.319 66.7268 101.29 66.6899C101.27 66.6641 101.202 66.6218 101.089 66.563L100.449 66.2284L100.025 67.0126L100.664 67.3467C100.78 67.4071 100.856 67.4385 100.891 67.4419C100.927 67.4452 100.965 67.4336 101.006 67.4081C101.048 67.3818 101.087 67.3382 101.12 67.2755L101.159 67.2035L101.221 67.2358L100.593 68.3953L100.53 68.3628L100.57 68.2914C100.605 68.2261 100.622 68.1678 100.619 68.1175C100.618 68.0806 100.604 68.0448 100.576 68.0079C100.555 67.9823 100.488 67.9392 100.375 67.8804L98.8885 67.1039C98.7729 67.0436 98.6971 67.0124 98.6617 67.0088C98.6254 67.0057 98.5877 67.0173 98.5462 67.0431C98.5036 67.0694 98.4657 67.1127 98.4324 67.1754L98.3934 67.2471L98.332 67.2149L98.9602 66.0553L99.0216 66.0875L98.9826 66.16C98.947 66.225 98.9311 66.2831 98.9334 66.3339C98.9334 66.3698 98.9488 66.4064 98.9777 66.4425C98.9979 66.4683 99.0634 66.5114 99.1777 66.5705L99.8778 66.936L100.302 66.152ZM102.729 64.0852L100.904 63.287C100.807 63.2447 100.746 63.2238 100.72 63.2228C100.694 63.2223 100.67 63.2303 100.649 63.2465C100.618 63.2695 100.59 63.3105 100.564 63.3681C100.479 63.5564 100.479 63.7287 100.565 63.8861C100.681 64.0984 100.924 64.2862 101.297 64.4495C101.597 64.5808 101.858 64.6391 102.08 64.6254C102.253 64.613 102.391 64.5606 102.494 64.4678C102.566 64.4017 102.644 64.2748 102.729 64.0852ZM100.92 62.2449L100.983 62.2722L100.948 62.3488C100.918 62.4151 100.906 62.4714 100.911 62.5162C100.917 62.5614 100.933 62.5996 100.963 62.6328C100.982 62.6537 101.053 62.6909 101.173 62.7438L102.711 63.416C102.831 63.4681 102.909 63.4945 102.945 63.4952C102.98 63.4963 103.016 63.4826 103.057 63.4542C103.095 63.4269 103.131 63.3802 103.159 63.3157L103.194 63.2398L103.258 63.2674L102.792 64.2954C102.668 64.5697 102.529 64.774 102.378 64.9079C102.193 65.0714 101.981 65.1656 101.745 65.1885C101.508 65.2112 101.271 65.171 101.033 65.0668C100.868 64.9951 100.729 64.9027 100.614 64.7902C100.499 64.6772 100.415 64.5601 100.362 64.4394C100.309 64.3166 100.279 64.1902 100.274 64.0579C100.268 63.926 100.285 63.7756 100.327 63.6072C100.344 63.5326 100.386 63.4207 100.453 63.2723L100.92 62.2449ZM104.022 61.4382L102.086 62.0372L103.114 62.4247C103.257 62.4788 103.362 62.4953 103.428 62.4744C103.518 62.4445 103.587 62.3643 103.636 62.2327L103.702 62.2575L103.399 63.0327L103.332 63.0077C103.359 62.9037 103.368 62.831 103.36 62.7889C103.354 62.7469 103.331 62.7074 103.291 62.6713C103.253 62.6346 103.176 62.5952 103.063 62.5526L101.073 61.8022L101.096 61.7431L103.707 60.906L102.187 60.3331C102.05 60.282 101.945 60.2776 101.872 60.3214C101.8 60.3643 101.748 60.4267 101.717 60.5054L101.695 60.5611L101.63 60.5363L101.956 59.7036L102.021 59.7284C101.971 59.8574 101.963 59.9585 101.996 60.0289C102.03 60.0993 102.109 60.1589 102.236 60.2069L103.923 60.8431L104.007 60.8162C104.089 60.7902 104.148 60.7626 104.183 60.7319C104.218 60.7017 104.251 60.6509 104.281 60.5802L104.346 60.6044L104.022 61.4382Z" fill="#CECECE"/>
<path fill-rule="evenodd" clip-rule="evenodd" d="M71.9254 81.5366L72.235 82.6642H73.2346L72.4259 83.3612L72.7346 84.4893L71.9254 83.7928L71.1162 84.4893L71.4255 83.3612L70.6162 82.6642H71.6164L71.9254 81.5366Z" fill="#CECECE"/>
<path d="M71.9254 81.5366L72.235 82.6642H73.2346L72.4259 83.3612L72.7346 84.4893L71.9254 83.7928L71.1162 84.4893L71.4255 83.3612L70.6162 82.6642H71.6164L71.9254 81.5366Z" fill="#CECECE"/>
<path fill-rule="evenodd" clip-rule="evenodd" d="M76.2557 81.2144L76.5645 82.3419H77.5649L76.7554 83.039L77.0642 84.1665L76.2557 83.47L75.4462 84.1665L75.755 83.039L74.9465 82.3419H75.9462L76.2557 81.2144Z" fill="#CECECE"/>
<path d="M76.2557 81.2144L76.5645 82.3419H77.5649L76.7554 83.039L77.0642 84.1665L76.2557 83.47L75.4462 84.1665L75.755 83.039L74.9465 82.3419H75.9462L76.2557 81.2144Z" fill="#CECECE"/>
<path fill-rule="evenodd" clip-rule="evenodd" d="M80.4769 80.4263L80.7857 81.5544H81.7861L80.9766 82.2514L81.2864 83.3795L80.4769 82.6825L79.6674 83.3795L79.9765 82.2514L79.1677 81.5544H80.1674L80.4769 80.4263Z" fill="#CECECE"/>
<path d="M80.4769 80.4263L80.7857 81.5544H81.7861L80.9766 82.2514L81.2864 83.3795L80.4769 82.6825L79.6674 83.3795L79.9765 82.2514L79.1677 81.5544H80.1674L80.4769 80.4263Z" fill="#CECECE"/>
<path fill-rule="evenodd" clip-rule="evenodd" d="M67.6681 81.2144L67.9774 82.3419H68.977L68.1683 83.039L68.4771 84.1665L67.6681 83.47L66.8586 84.1665L67.1679 83.039L66.3589 82.3419H67.3588L67.6681 81.2144Z" fill="#CECECE"/>
<path d="M67.6681 81.2144L67.9774 82.3419H68.977L68.1683 83.039L68.4771 84.1665L67.6681 83.47L66.8586 84.1665L67.1679 83.039L66.3589 82.3419H67.3588L67.6681 81.2144Z" fill="#CECECE"/>
<path fill-rule="evenodd" clip-rule="evenodd" d="M63.1922 80.3906L63.5013 81.5182H64.5014L63.6924 82.2158L64.0012 83.3436L63.1922 82.6468L62.3833 83.3436L62.692 82.2158L61.8831 81.5182H62.8829L63.1922 80.3906Z" fill="#CECECE"/>
<path d="M63.1922 80.3906L63.5013 81.5182H64.5014L63.6924 82.2158L64.0012 83.3436L63.1922 82.6468L62.3833 83.3436L62.692 82.2158L61.8831 81.5182H62.8829L63.1922 80.3906Z" fill="#CECECE"/>
<path fill-rule="evenodd" clip-rule="evenodd" d="M71.6952 47.7202C72.9773 47.7202 74.0169 48.741 74.0169 49.9999C74.0169 51.259 72.9773 52.2798 71.6952 52.2798C70.4134 52.2798 69.3738 51.259 69.3738 49.9999C69.3738 48.741 70.4131 47.7202 71.6952 47.7202Z" fill="#CECECE"/>
<path fill-rule="evenodd" clip-rule="evenodd" d="M66.585 48.807C55.5584 46.5137 54.0847 39.3187 55.4583 31.738C52.6305 39.8429 54.1956 47.1963 64.9944 50.425C58.0145 56.689 59.268 62.3947 64.2628 67.8474C59.9132 59.911 60.9053 55.1948 66.7132 51.6694C66.4929 50.7438 66.3358 49.8157 66.585 48.807Z" fill="#CECECE"/>
<path fill-rule="evenodd" clip-rule="evenodd" d="M76.7791 48.1831C85.5698 43.5637 81.9753 36.4716 79.2326 31.4172C83.8046 34.8761 86.8826 43.921 78.5629 49.2903C86.7751 51.2098 92.423 56.7471 87.9287 67.872C90.3936 59.1898 84.984 51.2705 77.2305 50.6201C77.238 49.6695 77.2478 49.1131 76.7791 48.1831Z" fill="#CECECE"/>
<path fill-rule="evenodd" clip-rule="evenodd" d="M69.9226 44.8433C66.1361 34.4176 72.8198 29.5136 80.1147 26.6914C71.6033 28.571 64.8303 33.6351 67.686 44.3602C58.5968 41.8024 54.3044 45.8396 52.1914 52.8741C56.7969 45.0778 61.4076 43.4374 67.5072 46.4497C68.1942 45.7808 68.917 45.1635 69.9226 44.8433Z" fill="#CECECE"/>
<path fill-rule="evenodd" clip-rule="evenodd" d="M75.1639 46.0075C82.3307 37.4641 89.6581 40.6802 95.8684 45.3796C89.857 39.1713 82.3442 35.9617 74.4385 43.8748C72.2738 34.6398 67.0443 32.2957 59.6633 34.2722C68.8403 34.1518 72.0213 38.1092 72.5207 44.7966C73.4577 45.0321 74.3683 45.3241 75.1639 46.0075Z" fill="#CECECE"/>
<path fill-rule="evenodd" clip-rule="evenodd" d="M70.6419 55.0845C72.0346 65.4899 78.0311 64.1962 84.0745 65.4592C78.302 65.8366 71.8582 67.2655 68.9653 56.0158C63.4481 62.7459 52.4984 62.2759 47.8318 54.8418C54.5173 62.4253 63.9569 59.8149 68.3459 54.0088C69.1598 54.5219 69.5901 54.9777 70.6419 55.0845Z" fill="#CECECE"/>
<path fill-rule="evenodd" clip-rule="evenodd" d="M74.909 53.3941C84.7776 57.4197 86.7743 52.0045 90.9136 47.4988C88.3561 52.5955 86.2539 58.4591 74.8902 55.285C78.0598 63.3453 72.8607 72.3406 63.9717 72.5857C74.0033 70.6991 75.7312 61.4451 72.8115 54.807C73.671 54.3721 74.2883 54.2346 74.909 53.3941Z" fill="#CECECE"/>
<path fill-rule="evenodd" clip-rule="evenodd" d="M56.4071 29.5044C57.1281 29.5044 57.7124 30.0786 57.7124 30.7865C57.7124 31.4946 57.1281 32.0683 56.4071 32.0683C55.6863 32.0683 55.1021 31.4944 55.1021 30.7865C55.1021 30.0786 55.6863 29.5044 56.4071 29.5044Z" fill="#CECECE"/>
<path fill-rule="evenodd" clip-rule="evenodd" d="M81.3329 25.8491C82.0537 25.8491 82.6382 26.4228 82.6382 27.131C82.6382 27.8388 82.0537 28.4126 81.3329 28.4126C80.6119 28.4126 80.0273 27.8388 80.0273 27.131C80.0276 26.4228 80.6119 25.8491 81.3329 25.8491Z" fill="#CECECE"/>
<path fill-rule="evenodd" clip-rule="evenodd" d="M96.3507 45.1941C97.0717 45.1941 97.6563 45.7678 97.6563 46.4759C97.6563 47.1838 97.0717 47.7578 96.3507 47.7578C95.63 47.7578 95.0454 47.1838 95.0454 46.4759C95.0457 45.7678 95.63 45.1941 96.3507 45.1941Z" fill="#CECECE"/>
<path fill-rule="evenodd" clip-rule="evenodd" d="M87.2157 67.5852C87.9372 67.5852 88.521 68.1589 88.521 68.867C88.521 69.5749 87.9372 70.1489 87.2157 70.1489C86.4949 70.1489 85.9109 69.5749 85.9109 68.867C85.9109 68.1587 86.4949 67.5852 87.2157 67.5852Z" fill="#CECECE"/>
<path fill-rule="evenodd" clip-rule="evenodd" d="M62.7548 71.0884C63.4753 71.0884 64.0601 71.6626 64.0601 72.37C64.0601 73.0781 63.4753 73.6521 62.7548 73.6521C62.0338 73.6521 61.4495 73.0781 61.4495 72.37C61.4497 71.6624 62.0338 71.0884 62.7548 71.0884Z" fill="#CECECE"/>
<path fill-rule="evenodd" clip-rule="evenodd" d="M47.4279 52.3528C48.1486 52.3528 48.7332 52.9265 48.7332 53.6344C48.7332 54.3425 48.1486 54.9162 47.4279 54.9162C46.7071 54.9162 46.1226 54.3422 46.1226 53.6344C46.1226 52.9265 46.7071 52.3528 47.4279 52.3528Z" fill="#CECECE"/>
<path fill-rule="evenodd" clip-rule="evenodd" d="M71.695 12C93.0627 12 110.39 29.0164 110.39 50C110.39 70.9844 93.0627 88.0003 71.695 88.0003C50.3277 88 33 70.9842 33 50C33 29.0164 50.3277 12 71.695 12ZM71.695 13.3984C92.2762 13.3984 108.966 29.7892 108.966 50C108.966 70.2118 92.2762 86.6023 71.695 86.6023C51.1145 86.6023 34.4242 70.2118 34.4242 50C34.4242 29.789 51.1145 13.3984 71.695 13.3984Z" fill="#CECECE"/>
<path fill-rule="evenodd" clip-rule="evenodd" d="M71.695 21.9067C87.4922 21.9067 100.302 34.4868 100.302 50.0002C100.302 65.5137 87.4919 78.094 71.695 78.094C55.8983 78.094 43.0881 65.5134 43.0881 50.0002C43.0881 34.4871 55.8983 21.9067 71.695 21.9067ZM71.695 22.9404C86.9107 22.9404 99.2499 35.0582 99.2499 50.0002C99.2499 64.9428 86.9107 77.0601 71.695 77.0601C56.4798 77.0601 44.1406 64.9428 44.1406 50.0002C44.1406 35.058 56.4795 22.9404 71.695 22.9404Z" fill="#CECECE"/>
</svg>
