<svg width="160" height="100" viewBox="0 0 160 100" fill="none" xmlns="http://www.w3.org/2000/svg">
<path d="M91.8857 65.7713C93.9536 69.6984 98.4046 71.5392 106.259 70.8621C108.994 70.6285 111.672 69.3497 112.819 67.3104L113.362 69.0028C113.814 70.0286 114.752 70.7781 116.087 70.7781H128.918C129.267 70.7781 129.379 70.6736 129.202 70.4305C129.189 70.4154 128.503 69.6563 127.378 68.4393C125.97 66.9255 126.045 65.3211 126.045 65.3211V29.0008H112.302V58.0487C112.133 60.7996 109.445 61.4969 107.961 61.4481C105.828 61.3833 104.587 60.1805 104.587 58.1317V28.9998L91.2021 29.0008C91.2021 29.0008 85.6112 29.0067 81.7676 29.0067C74.4403 29.0067 67.5258 30.1351 65.1865 36.2332L63.8057 30.8319C63.4679 29.7586 62.3122 29.0008 61.1631 29.0008L37.2373 29.0018C36.8887 29.0018 36.7599 29.1147 36.9375 29.3592C36.9375 29.3592 37.5882 29.9768 38.7695 31.3299C40.4064 33.2007 39.7676 35.6981 39.7676 35.6981L31 70.7752H43.7578L45.5918 63.074H57.9053L59.8232 70.7752H76.6182C83.5145 70.7752 89.1218 70.0742 91.8857 65.7713ZM101.662 57.3416L93.6055 55.5242C93.6035 55.5024 93.2657 51.9052 89.1064 49.0379C86.9266 47.5354 84.2653 46.5316 81.9277 45.6414C80.1317 44.9644 78.4414 44.3158 77.2197 43.5535C75.8575 42.6901 75.2197 41.758 75.2197 40.6307C75.2198 39.8046 75.4907 39.1182 76.0352 38.5838C76.9759 37.6637 78.6862 37.2514 80.9971 37.2703C83.4631 37.2901 86.0787 38.393 86.1074 38.4051L91.3486 31.9217C91.4007 31.8583 91.4636 31.8245 91.5283 31.8172C91.7193 31.7952 91.9136 31.993 91.8047 32.2117L88.2422 39.3826C88.2076 39.4501 88.2889 39.5144 88.3457 39.4656L94.6787 33.953C94.9202 33.7425 95.2599 34.0584 95.0674 34.3143L90.1738 40.8162C90.13 40.8766 90.1991 40.9565 90.2637 40.9178L97.5449 36.4871C97.8164 36.3228 98.0914 36.691 97.8594 36.9071L91.7979 42.5301C91.7428 42.5821 91.8028 42.6753 91.8721 42.6473L99.9004 39.4227C100.189 39.3067 100.396 39.7058 100.136 39.8758L93.0684 44.4783C93.0042 44.5195 93.0471 44.6187 93.1211 44.6014L101.662 42.6756C101.959 42.6078 102.095 43.0305 101.815 43.1522L93.9414 46.5936C93.8725 46.6253 93.8992 46.727 93.9746 46.7225L102.718 46.1619C103.024 46.1414 103.091 46.5819 102.796 46.658L94.3916 48.8123C94.3174 48.8328 94.324 48.9388 94.4014 48.9451L103.122 49.7596C103.425 49.788 103.425 50.2289 103.122 50.2557L94.4014 51.0701C94.324 51.078 94.3158 51.1869 94.3916 51.2059L102.796 53.3572C103.092 53.4334 103.024 53.8732 102.718 53.8543L93.9746 53.2928C93.8992 53.2899 93.8725 53.3945 93.9414 53.4246L101.815 56.8631C102.094 56.9848 101.959 57.4077 101.662 57.3416ZM62.2266 36.8973C62.0533 36.7365 62.1669 36.4907 62.3467 36.4471C62.4067 36.4327 62.4747 36.4402 62.541 36.4813L64.8438 37.8807C64.768 38.2572 64.6767 38.7632 64.623 39.1199L62.2266 36.8973ZM51.7539 38.3123L56.0156 55.4656H47.5068L51.7539 38.3123ZM59.9521 39.869C59.7584 39.742 59.825 39.4873 59.9922 39.4158C60.0472 39.3923 60.1149 39.3874 60.1855 39.4158L64.5078 41.1522C64.5062 41.6675 64.5298 42.3621 64.585 42.8865L59.9521 39.869ZM58.2803 43.1522C58.0013 43.0304 58.1373 42.6078 58.4355 42.6756L64.7949 44.1121C64.9622 44.8761 65.2561 45.7109 65.5781 46.3406L58.2803 43.1522ZM68.748 68.0965C68.5428 68.3506 68.1458 68.0965 68.291 67.8045L71.8174 60.7098C71.8599 60.6263 71.7566 60.5474 71.6855 60.6082L65.4268 66.0555C65.1853 66.267 64.8426 65.9534 65.0352 65.6961L69.8887 59.2498C69.9407 59.1789 69.8589 59.0854 69.7832 59.1307L62.5312 63.5399C62.263 63.7037 61.9903 63.3408 62.2207 63.1278L68.2754 57.5067C68.3353 57.4499 68.2725 57.3523 68.1953 57.3836L60.1855 60.5994C59.8985 60.7141 59.6937 60.3152 59.9521 60.1463L67.0029 55.5594C67.0708 55.5136 67.0254 55.4047 66.9434 55.4237L58.4355 57.3416C58.1374 57.4079 58.0014 56.9849 58.2803 56.8631L66.1543 53.4246C66.225 53.3945 66.1997 53.2881 66.124 53.2928L57.3682 53.8543C57.0652 53.8731 56.9945 53.4389 57.2881 53.3631L65.7041 51.2059C65.7783 51.1854 65.7701 51.078 65.6943 51.0701L56.9609 50.2557C56.6611 50.2272 56.6612 49.7881 56.9609 49.7596L65.7139 48.9451C65.7862 48.9371 65.7941 48.8355 65.7236 48.8162L57.2881 46.6551C56.993 46.5793 57.0652 46.1432 57.3682 46.1619L65.7725 46.701C67.9224 50.631 72.4585 52.1972 76.4424 53.5799C80.3223 54.9137 83.6562 56.0658 83.6562 59.0555C83.6562 59.8526 83.3375 60.5586 82.6982 61.1395C81.4686 62.2585 79.2218 62.8014 76.75 62.5662C75.3579 62.4351 73.8965 61.7147 73.8965 61.7147L68.748 68.0965ZM100.136 60.1395C100.396 60.3099 100.191 60.7123 99.9004 60.5955L93.8213 58.1512C93.8213 58.1512 93.8378 56.7302 93.6768 55.9315L100.136 60.1395ZM97.8789 63.1278C98.109 63.3408 97.8327 63.7038 97.5645 63.5399L93.5869 61.1229C93.5902 61.0991 93.7463 59.9512 93.7744 59.3201L97.8789 63.1278ZM95.0674 65.702C95.26 65.9577 94.9202 66.2752 94.6787 66.0653L92.6963 64.3358C92.6963 64.3358 92.9838 63.6302 93.1338 63.1346L95.0674 65.702Z" fill="#CECECE"/>
</svg>
