<svg width="144" height="100" viewBox="0 0 144 100" fill="none" xmlns="http://www.w3.org/2000/svg">
<g clip-path="url(#clip0_408_512)">
<path d="M72.0088 73.501V73.458L72.0156 73.501C72.0576 73.479 72.1005 73.4579 72.1436 73.4355V75.7217H71.8232V73.4062C71.886 73.4386 71.9482 73.4694 72.0088 73.501ZM70.9375 72.958L70.7949 75.7002L70.4648 75.6807L70.6152 72.7949C70.7247 72.8498 70.8318 72.9049 70.9375 72.958ZM73.498 75.6777L73.1748 75.6953L73.0322 72.9834C73.1357 72.9313 73.2405 72.8771 73.3477 72.8232L73.498 75.6777ZM69.7812 72.373L69.4424 75.6035L69.1211 75.5693L69.4727 72.2168C69.5766 72.2696 69.6795 72.3217 69.7812 72.373ZM74.8447 75.5645L74.5303 75.6035L74.1924 72.3945C74.2922 72.3441 74.3932 72.293 74.4951 72.2412L74.8447 75.5645ZM68.6758 71.8086L68.1035 75.4297L67.7764 75.3809L68.3672 71.6475C68.4707 71.7018 68.5736 71.7555 68.6758 71.8086ZM76.1826 75.3809L75.8643 75.4297L75.293 71.832C75.3932 71.7799 75.4941 71.7272 75.5957 71.6738L76.1826 75.3809ZM67.6094 71.2422L66.7705 75.1934L66.4541 75.1309L67.3135 71.082C67.4123 71.1363 67.5113 71.189 67.6094 71.2422ZM77.5088 75.124L77.1904 75.1895L76.3564 71.2676C76.4552 71.2141 76.5548 71.1611 76.6543 71.1064L77.5088 75.124ZM66.5791 70.6689L65.4492 74.8887L65.1426 74.8037L66.293 70.5059C66.3882 70.5612 66.4841 70.6147 66.5791 70.6689ZM78.8174 74.8018L78.5078 74.8838L77.3857 70.6953C77.4813 70.6408 77.578 70.5877 77.6738 70.5322L78.8174 74.8018ZM65.5908 70.0869L64.1553 74.5088L63.8447 74.4092L65.3047 69.915C65.3995 69.9737 65.4959 70.0293 65.5908 70.0869ZM80.1191 74.4092L79.8057 74.5088L78.3779 70.1123C78.4735 70.0544 78.5705 69.9984 78.666 69.9395L80.1191 74.4092ZM64.3555 69.3066C64.4468 69.3673 64.539 69.4266 64.6309 69.4863L62.8721 74.0713L62.5732 73.9502L64.3555 69.3066ZM81.3906 73.9463L81.0859 74.0645L79.3389 69.5137C79.4323 69.4531 79.5261 69.3927 79.6191 69.3311L81.3906 73.9463ZM63.4414 68.6748C63.5307 68.7391 63.6209 68.802 63.7109 68.8652L61.6221 73.5576L61.3271 73.4268L63.4414 68.6748ZM82.6387 73.4229L82.3379 73.5576L80.2607 68.8916C80.3523 68.8275 80.4444 68.7644 80.5352 68.6992L82.6387 73.4229ZM62.5654 68.0156C62.6514 68.0834 62.7391 68.1491 62.8262 68.2158L60.3984 72.9824L60.1104 72.834L62.5654 68.0156ZM83.8535 72.834L83.5635 72.9824L81.1484 68.2432C81.2362 68.1762 81.3245 68.1101 81.4111 68.042L83.8535 72.834ZM61.7275 67.3203C61.8113 67.3936 61.8971 67.4649 61.9824 67.5371L59.2041 72.3496L58.9199 72.1846L61.7275 67.3203ZM85.0332 72.1797L84.7539 72.3408L81.9961 67.5635C82.0798 67.493 82.1638 67.4232 82.2461 67.3516L85.0332 72.1797ZM60.9434 66.5938C61.0221 66.6713 61.103 66.7469 61.1836 66.8232L58.0488 71.6504L57.7773 71.4688L60.9434 66.5938ZM86.1826 71.4688L85.9121 71.6436L82.7988 66.8496C82.8786 66.7744 82.9582 66.6994 83.0361 66.623L86.1826 71.4688ZM60.2109 65.8213C60.2844 65.9045 60.3607 65.9855 60.4365 66.0674L56.9346 70.8887L56.668 70.7012L60.2109 65.8213ZM87.2949 70.6924L87.0303 70.8887L83.5488 66.0967C83.6255 66.0143 83.702 65.9323 83.7764 65.8486L87.2949 70.6924ZM59.542 65C59.6078 65.088 59.6766 65.174 59.7451 65.2607L55.8525 70.0684L55.6016 69.8682L59.542 65ZM88.3613 69.8682L88.1084 70.0645L84.2432 65.291C84.3115 65.2052 84.3806 65.1203 84.4463 65.0332L88.3613 69.8682ZM58.9736 64.165C59.0247 64.2481 59.0792 64.3291 59.1328 64.4111L54.8213 69.2012L54.583 68.9785L58.9512 64.126C58.9589 64.1387 58.9658 64.1523 58.9736 64.165ZM89.3818 68.9795L89.1406 69.1963L84.8613 64.4424C84.9223 64.35 84.9843 64.2587 85.042 64.165C85.0427 64.1638 85.0432 64.1624 85.0439 64.1611L89.3818 68.9795ZM58.4551 63.1943C58.5031 63.2981 58.553 63.4017 58.6055 63.5049L53.835 68.2764L53.6064 68.0449L58.4551 63.1943ZM90.3545 68.0449L90.1299 68.2715L85.3936 63.5352C85.4452 63.4345 85.4946 63.3336 85.542 63.2324L90.3545 68.0449ZM58.0645 62.2168C58.101 62.326 58.1407 62.4349 58.1816 62.5439L52.8984 67.3037L52.6846 67.0635L58.0645 62.2168ZM91.2832 67.0547L91.0674 67.2988L85.8213 62.5752C85.8632 62.4646 85.903 62.354 85.9404 62.2432L91.2832 67.0547ZM57.7822 61.1885C57.8077 61.3045 57.8344 61.4208 57.8643 61.5371L52.0117 66.2783L51.8066 66.0293L57.7822 61.1885ZM92.1562 66.0254L91.9482 66.2734L86.1396 61.5693C86.1698 61.453 86.1979 61.3368 86.2236 61.2207L92.1562 66.0254ZM57.6074 60.1406C57.6216 60.2622 57.6377 60.3843 57.6562 60.5068L51.1855 65.21L50.9912 64.9482L57.6074 60.1406ZM92.9668 64.9434L92.7793 65.207L86.3516 60.5361C86.3701 60.4146 86.3861 60.2935 86.4004 60.1729L92.9668 64.9434ZM57.5322 59.0889C57.5353 59.2134 57.5407 59.3387 57.5479 59.4648L50.4111 64.1016L50.2324 63.8311L57.5322 59.0889ZM93.7285 63.8271L93.5557 64.0977L86.4609 59.4902C86.4681 59.3654 86.4734 59.2414 86.4766 59.1182L93.7285 63.8271ZM57.5508 58.042C57.5433 58.1699 57.5359 58.2991 57.5322 58.4297L49.7021 62.9541L49.541 62.667L57.5508 58.042ZM94.4277 62.667L94.2627 62.9463L86.4766 58.4502C86.4729 58.321 86.4673 58.193 86.46 58.0664L94.4277 62.667ZM57.6484 57.0186C57.6314 57.1455 57.6164 57.2745 57.6025 57.4053L49.043 61.7686L48.8965 61.4805L57.6484 57.0186ZM95.0605 61.4805L94.917 61.7637L86.4072 57.4287C86.3935 57.2993 86.3791 57.1715 86.3623 57.0459L95.0605 61.4805ZM57.8174 56.0293C57.7917 56.1546 57.7684 56.283 57.7451 56.4141L48.4551 60.5527L48.3223 60.2588L57.8174 56.0293ZM95.6455 60.2549L95.5078 60.5518L86.2637 56.4336C86.2401 56.3013 86.2174 56.1714 86.1914 56.0449L95.6455 60.2549ZM57.9463 55.457L47.9297 59.3037L47.8193 59.0029L58.0449 55.0752C58.0113 55.1978 57.9787 55.3253 57.9463 55.457ZM96.1465 59.0029L96.0312 59.3037L86.0625 55.4766C86.0298 55.3437 85.9959 55.2154 85.9619 55.0918L96.1465 59.0029ZM58.3291 54.1602C58.2876 54.2793 58.2445 54.4077 58.2012 54.5449L47.4727 58.0322L47.3721 57.7207L58.3291 54.1602ZM96.5918 57.7207L96.4912 58.0303L85.8057 54.5576C85.7626 54.4212 85.719 54.2935 85.6777 54.1748L96.5918 57.7207ZM58.6475 53.3018C58.6021 53.4258 58.5555 53.5501 58.5078 53.6748L47.0781 56.7393L46.9951 56.4248L58.6475 53.3018ZM96.9648 56.4248L96.8838 56.7393L85.5 53.6875C85.4522 53.5627 85.4048 53.4386 85.3594 53.3145L96.9648 56.4248ZM58.8037 52.8613L46.749 55.4258L46.6865 55.1074L58.9229 52.5059C58.884 52.624 58.8447 52.7426 58.8037 52.8613ZM97.2764 55.1074L97.207 55.4238L85.2012 52.8711C85.1602 52.7525 85.1218 52.6337 85.083 52.5156L97.2764 55.1074ZM59.1543 51.7637C59.1205 51.878 59.0855 51.9925 59.0498 52.1074L46.501 54.0947L46.4492 53.7764L59.1543 51.7637ZM97.5078 53.7764L97.46 54.0947L84.9541 52.1152C84.9183 52.0001 84.8844 51.885 84.8506 51.7705L97.5078 53.7764ZM59.3506 51.0645C59.3214 51.1746 59.2907 51.2848 59.2598 51.3955L46.3184 52.7568L46.2822 52.4404L59.3506 51.0645ZM97.6777 52.4404L97.6436 52.7568L84.7432 51.4004C84.7122 51.2894 84.6825 51.1787 84.6533 51.0684L97.6777 52.4404ZM59.5195 50.3867C59.4936 50.497 59.4672 50.6078 59.4395 50.7188L46.2012 51.4141L46.1846 51.0859L59.5195 50.3867ZM97.7744 51.0859L97.7568 51.4141L84.5635 50.7207C84.5358 50.6098 84.5103 50.4989 84.4844 50.3887L97.7744 51.0859ZM97.8047 49.7363V50.0586H84.4111C84.3873 49.9508 84.365 49.8434 84.3428 49.7363H97.8047ZM59.5938 50.0586H46.1572V49.7363H59.6621C59.6399 49.8433 59.6176 49.9509 59.5938 50.0586ZM59.7861 49.0947C59.7667 49.2019 59.7495 49.31 59.7285 49.418L46.1846 48.708L46.2012 48.3838L59.7861 49.0947ZM97.7744 48.708L84.2744 49.416C84.2534 49.3077 84.2362 49.1993 84.2168 49.0918L97.7607 48.3838L97.7744 48.708ZM59.8936 48.4629C59.8771 48.569 59.8588 48.6753 59.8408 48.7822L46.2822 47.3574L46.3184 47.0342L59.8936 48.4629ZM97.6777 47.3584L84.1621 48.7783C84.1442 48.6714 84.1258 48.5651 84.1094 48.459L97.6436 47.0361L97.6777 47.3584ZM59.9834 47.833C59.9695 47.9404 59.9529 48.0479 59.9375 48.1562L46.4492 46.0225L46.501 45.6982L59.9834 47.833ZM97.5098 46.0225L84.0654 48.1494C84.05 48.0408 84.0334 47.9329 84.0195 47.8252L97.4639 45.6982L97.5098 46.0225ZM60.0557 47.1982C60.0447 47.3042 60.033 47.4106 60.0205 47.5176L46.6865 44.6846L46.749 44.3711L60.0557 47.1982ZM97.2764 44.6846L83.9824 47.5098C83.9699 47.4018 83.9583 47.2944 83.9473 47.1875L97.207 44.3711L97.2764 44.6846ZM60.1143 46.5498C60.1058 46.6583 60.0978 46.7674 60.0879 46.877L46.9951 43.3691L47.0781 43.0576L60.1143 46.5498ZM96.9717 43.3691L83.915 46.8672C83.9051 46.7573 83.897 46.6478 83.8887 46.5391L96.8838 43.0576L96.9717 43.3691ZM60.1572 45.8838C60.1515 45.9947 60.1479 46.1065 60.1406 46.2188L47.3721 42.0703L47.4727 41.7637L60.1572 45.8838ZM96.5918 42.0703L83.8623 46.2061C83.8551 46.0935 83.8523 45.9814 83.8467 45.8701L96.4912 41.7637L96.5918 42.0703ZM60.1836 45.1953C60.1809 45.3085 60.1781 45.4224 60.1738 45.5371L47.8193 40.7949L47.9297 40.4912L60.1836 45.1953ZM96.1465 40.7949L83.8301 45.5215C83.8259 45.4061 83.8239 45.2915 83.8213 45.1777L96.0312 40.4912L96.1465 40.7949ZM60.1914 44.4688C60.1919 44.5854 60.1925 44.7029 60.1914 44.8213L48.3311 39.5391L48.457 39.2451L60.1914 44.4688ZM95.6406 39.5391L83.8135 44.8047C83.8125 44.6869 83.8138 44.5701 83.8145 44.4541L95.5078 39.248L95.6406 39.5391ZM60.1768 43.6982C60.181 43.8212 60.185 43.9452 60.1875 44.0703L48.8975 38.3193L49.0459 38.0254L60.1768 43.6982ZM95.0605 38.3193L83.8184 44.0469C83.821 43.9214 83.8257 43.7971 83.8301 43.6738L94.917 38.0254L95.0605 38.3193ZM60.1348 42.8682C60.1433 42.9954 60.1524 43.1239 60.1592 43.2539L49.541 37.124L49.7021 36.8467L60.1348 42.8682ZM94.4238 37.124L83.8486 43.2305C83.8556 43.1001 83.8643 42.9713 83.873 42.8438L94.2627 36.8467L94.4238 37.124ZM60.0596 41.9658C60.0732 42.0981 60.0849 42.2323 60.0967 42.3682L50.2383 35.9678L50.4121 35.7012L60.0596 41.9658ZM93.7266 35.9678L83.9121 42.3408C83.9243 42.2023 83.9361 42.0655 83.9502 41.9307L93.5449 35.7012L93.7266 35.9678ZM59.9326 40.9453C59.9533 41.0892 59.9743 41.2356 59.9932 41.3848L50.9971 34.8486L51.1855 34.5908L59.9326 40.9453ZM92.9668 34.8486L84.0176 41.3506C84.0367 41.201 84.0581 41.0543 84.0791 40.9102L92.7803 34.5908L92.9668 34.8486ZM59.7363 39.7764C59.7665 39.9326 59.7967 40.093 59.8252 40.2578L51.8193 33.7744L52.0117 33.5215L59.7363 39.7764ZM92.1494 33.7744L84.1885 40.2197C84.2177 40.0525 84.2474 39.8896 84.2783 39.7314L91.9482 33.5215L92.1494 33.7744ZM59.4199 38.3643C59.4655 38.5411 59.5104 38.7279 59.5557 38.9238L52.6846 32.7373L52.9043 32.498L59.4199 38.3643ZM91.2744 32.7373L84.4639 38.8701C84.5095 38.6753 84.5558 38.49 84.6016 38.3145L91.0605 32.498L91.2744 32.7373ZM58.8555 36.543C58.9193 36.7138 58.9999 36.9473 59.0928 37.2373L53.6094 31.7549L53.835 31.5225L58.8555 36.543ZM90.3545 31.7549L84.9365 37.1719C85.0351 36.8685 85.1203 36.632 85.1826 36.4688L90.1299 31.5225L90.3545 31.7549ZM59.2998 35.5684L59.0811 35.8076L54.584 30.8125L54.8242 30.5967L59.2998 35.5684ZM89.3818 30.8125L84.9043 35.7852L84.6846 35.5449L89.1416 30.5967L89.3818 30.8125ZM59.9844 34.8203L59.7627 35.0625L55.6084 29.9326L55.8604 29.7256L59.9844 34.8203ZM88.3564 29.9326L84.2217 35.0371L83.999 34.793L88.1035 29.7256L88.3564 29.9326ZM60.6807 34.0586L60.4551 34.3057L56.6748 29.1006L56.9395 28.9082L60.6807 34.0586ZM87.292 29.1006L83.5283 34.2793L83.3027 34.0322L87.0264 28.9082L87.292 29.1006ZM61.3877 33.2852L61.1621 33.5332L57.7852 28.333L58.0557 28.1533L61.3877 33.2852ZM86.1826 28.333L82.8223 33.5049L82.5947 33.2559L85.9102 28.1533L86.1826 28.333ZM62.1172 32.4883L61.8926 32.7334L58.9385 27.6143L59.21 27.4521L62.1172 32.4883ZM85.0332 27.6143L82.0918 32.7061L81.8613 32.4541L84.75 27.4541L85.0332 27.6143ZM62.8711 31.6641L62.6406 31.916L60.1162 26.9619L60.4023 26.8184L62.8711 31.6641ZM83.8447 26.9619L81.3379 31.8799L81.1094 31.6309L83.5635 26.8184L83.8447 26.9619ZM82.6338 26.373L80.3477 31.5059H79.9912L82.3379 26.2363L82.6338 26.373ZM81.3848 25.8496L79.2129 31.5059H78.8691L81.0859 25.7314L81.3848 25.8496ZM80.1133 25.3887L78.126 31.5059H77.7852L79.8057 25.2871L80.1133 25.3887ZM78.8174 24.998L77.0732 31.5059H76.7422L78.5078 24.916L78.8174 24.998ZM77.5068 24.6709L76.0537 31.5059H75.7236L77.1904 24.6055L77.5068 24.6709ZM76.1826 24.416L75.0596 31.5059H74.7295L75.8604 24.3682L76.1826 24.416ZM74.8398 24.2344L74.0762 31.5059H73.748L74.5156 24.2002L74.8398 24.2344ZM73.4951 24.1191L73.1084 31.5059H72.7803L73.168 24.1006L73.4951 24.1191ZM72.1436 31.5059H71.8232V24.0742H72.1436V31.5059ZM71.1855 31.5059H70.8623L70.4766 24.1191L70.7979 24.1006L71.1855 31.5059ZM70.2158 31.5059H69.8867L69.1211 24.2354L69.4482 24.1982L70.2158 31.5059ZM69.2383 31.5059H68.9004L67.7764 24.416L68.1084 24.3682L69.2383 31.5059ZM68.2383 31.5059H67.9062L66.4541 24.6709L66.7715 24.6055L68.2383 31.5059ZM67.2266 31.5059H66.8857L65.1426 24.998L65.4619 24.916L67.2266 31.5059ZM66.1758 31.5059H65.8408L63.8545 25.3887L64.1553 25.2871L66.1758 31.5059ZM65.1006 31.5059H64.749L62.5771 25.8467L62.8848 25.7314L65.1006 31.5059ZM63.9736 31.5059H63.6221L61.3379 26.373L61.627 26.2363L63.9736 31.5059Z" fill="#CECECE"/>
<path d="M71.986 12C51.035 12.0043 33.9903 29.0502 34 50.0054C34 70.9627 51.0568 88.0079 72 88C92.9591 87.998 109.993 70.9475 109.993 49.9857C109.991 29.035 92.9432 11.9934 71.986 12ZM71.986 86.6173C64.7439 86.6171 57.6645 84.4694 51.6431 80.4458C45.6216 76.4222 40.9284 70.7034 38.1571 64.0126C35.3857 57.3218 34.6605 49.9595 36.0734 42.8565C37.4862 35.7536 40.9735 29.2292 46.0943 24.1081C51.2151 18.9871 57.7395 15.4996 64.8423 14.0865C71.9452 12.6735 79.3076 13.3983 85.9985 16.1694C92.6894 18.9406 98.4083 23.6335 102.432 29.6548C106.456 35.6762 108.604 42.7555 108.604 49.9975C108.605 54.8064 107.658 59.5683 105.817 64.0113C103.977 68.4542 101.28 72.4912 97.8797 75.8917C94.4794 79.2921 90.4425 81.9896 85.9996 83.8299C81.5567 85.6702 76.7949 86.6173 71.986 86.6173Z" fill="#CECECE"/>
<path d="M69.1409 25.2827L68.0984 25.7472C67.8296 25.8596 67.5485 25.9397 67.2609 25.986L66.9818 26.0274L66.609 27.0436C66.609 27.0436 66.9164 27.0459 67.0963 27.0482C66.9427 27.4735 66.4737 28.7382 66.4737 28.7382C66.466 28.7405 66.416 28.8865 66.3854 28.9444L65.9524 29.0123L65.8293 29.2654L65.5043 30.0451H67.8478L68.2489 29.0572C68.2489 29.0572 67.9349 29.0119 67.7693 28.9874C67.9175 28.5814 69.1409 25.2827 69.1409 25.2827ZM71.8977 26.081C71.7947 25.9559 71.664 25.8564 71.516 25.7904C71.3681 25.7243 71.2068 25.6935 71.0448 25.7003H71.0394C70.2325 25.7003 69.4288 26.4341 69.2477 27.3381C69.2332 27.4355 69.2257 27.5339 69.2251 27.6323C69.2209 27.9101 69.3156 28.1803 69.4924 28.3947C69.5796 28.5019 69.6894 28.5887 69.814 28.6486C69.5757 28.8391 69.2947 28.969 68.9951 29.0271L68.6407 29.1022L68.5501 30.1327L69.0691 30.1316C69.3535 30.104 69.6333 30.0413 69.9023 29.9451C70.465 29.7356 70.9652 29.3864 71.3557 28.9303C71.7462 28.4742 72.0142 27.9262 72.1345 27.3379C72.1876 27.0466 72.2433 26.4866 71.8977 26.081ZM70.8339 26.9357C70.8324 26.9979 70.824 27.0598 70.8088 27.1201C70.8088 27.1201 70.7409 27.3327 70.6868 27.4864C70.662 27.4993 70.6361 27.5099 70.6094 27.5181V27.5138C70.6083 27.4712 70.6123 27.4288 70.6214 27.3872C70.646 27.2189 70.7201 27.0617 70.8343 26.9357H70.8339Z" fill="white"/>
<path d="M74.3281 27.1203C74.4215 27.0492 74.5215 26.9874 74.6269 26.9358L75.4809 26.6785L75.5538 26.3297L75.6029 25.5642L75.0031 25.6808L74.8865 25.7005L74.2487 25.8553C73.6524 26.0332 73.117 26.3728 72.702 26.8365C72.287 27.3002 72.0086 27.8699 71.8977 28.4822C71.8779 28.5766 71.8669 28.6726 71.8649 28.769C71.8528 28.7881 71.8393 28.8063 71.8246 28.8235C71.8246 28.8235 71.8606 28.8138 71.8606 28.8092C71.8606 28.8235 71.8452 28.8432 71.8452 28.8486C71.8329 29.1623 71.9361 29.4695 72.1354 29.7121C72.2426 29.8395 72.377 29.9412 72.5287 30.0099C72.6804 30.0786 72.8455 30.1125 73.012 30.1091C73.8571 30.1091 74.674 29.3676 74.8453 28.4256C74.8613 28.3219 74.8711 28.2174 74.8747 28.1126C74.8826 27.8311 74.7928 27.5556 74.6206 27.3328C74.536 27.2458 74.4371 27.1739 74.3281 27.1203ZM73.4984 28.2008C73.4981 28.2492 73.493 28.2974 73.4832 28.3448C73.4615 28.5616 73.3623 28.7633 73.2039 28.9129C73.2054 28.8327 73.216 28.753 73.2356 28.6753C73.2576 28.5281 73.3017 28.3851 73.3664 28.2511C73.4083 28.2267 73.4525 28.2066 73.4984 28.1911V28.2008ZM78.0193 26.056C77.9222 25.9405 77.8001 25.8484 77.6622 25.7868C77.5244 25.7252 77.3744 25.6957 77.2235 25.7005H77.2146C75.9388 25.7005 75.1645 27.4845 75.0031 28.3448C74.9039 28.769 74.8591 29.3556 75.1898 29.7569C75.2861 29.8713 75.4071 29.9624 75.5436 30.0234C75.6801 30.0844 75.8287 30.1137 75.9782 30.1091C77.2583 30.1091 78.0367 28.3045 78.2155 27.4299C78.3029 27.0209 78.3421 26.4517 78.0193 26.056ZM76.8679 27.2369C76.7469 27.6916 76.5726 28.1305 76.3487 28.5444C76.4714 28.0902 76.6456 27.6515 76.8679 27.2369Z" fill="white"/>
<path d="M66.2206 29.5637L66.272 29.446C66.7136 29.3949 66.7527 29.3675 66.9197 28.9085L67.6481 26.9357C67.7701 26.6188 67.7518 26.5946 67.4879 26.5869L67.286 26.5803L67.3296 26.4515C67.6621 26.4131 67.9861 26.3214 68.2893 26.1799L67.2837 28.9094C67.1126 29.3684 67.1465 29.3958 67.5739 29.4469L67.5259 29.5646L66.2206 29.5637ZM70.938 26.3492C71.433 26.3492 71.3261 26.9816 71.2825 27.2093C71.2362 27.4296 71.1653 27.6439 71.0711 27.8483C70.9228 27.9441 70.7521 27.9998 70.5758 28.0097C70.1931 28.0097 70.0742 27.7023 70.1505 27.2987C70.239 26.8189 70.5552 26.3501 70.938 26.3501V26.3492ZM71.0394 26.179C70.4778 26.179 69.8552 26.7505 69.7329 27.4298C69.625 27.9313 69.89 28.2935 70.2924 28.2935C70.3938 28.2873 70.4928 28.2606 70.5835 28.2149L70.9925 28.0219C70.799 28.3908 70.5284 28.7139 70.1992 28.9692C69.87 29.2245 69.4897 29.4061 69.0842 29.5017L69.07 29.6488C69.3002 29.6282 69.5266 29.5765 69.7429 29.4951C70.2282 29.3163 70.6595 29.0162 70.9959 28.6233C71.3323 28.2305 71.5624 27.758 71.6643 27.251C71.7569 26.7623 71.6598 26.179 71.0448 26.179H71.0394ZM73.5081 27.7111C73.9834 27.7111 74.0119 28.1185 73.9564 28.4329C73.8385 29.0381 73.5081 29.4623 73.1416 29.4623C72.7283 29.4623 72.6835 29.0119 72.7643 28.5834C72.8039 28.34 72.8802 28.1039 72.9906 27.8834C73.1474 27.7862 73.3248 27.7272 73.5085 27.7111H73.5081ZM75.0893 26.155C74.8541 26.1886 74.6221 26.2415 74.3958 26.3135C73.8821 26.4685 73.4207 26.7611 73.0616 27.1598C72.7025 27.5584 72.4594 28.0478 72.3587 28.5748C72.2433 29.1878 72.4945 29.6327 73.0119 29.6327C73.6004 29.6327 74.2342 29.0852 74.3752 28.3317C74.4677 27.8453 74.2584 27.4332 73.7765 27.4332C73.6647 27.4463 73.5557 27.4772 73.4537 27.5248L73.097 27.696L73.0893 27.6905C73.396 27.1476 73.8777 26.7247 74.4557 26.4909C74.6551 26.406 74.8637 26.3445 75.0773 26.3078L75.0893 26.155ZM77.1643 26.3492C77.5177 26.3492 77.4611 26.8245 77.3907 27.1527C77.2879 27.66 76.6927 29.4614 76.0406 29.4614C75.7112 29.4614 75.7504 28.9958 75.8246 28.6359C75.9378 28.1016 76.5139 26.3483 77.1637 26.3483L77.1643 26.3492ZM77.2146 26.179C76.292 26.179 75.6205 27.6566 75.4589 28.4424C75.3357 29.0126 75.391 29.6343 75.9781 29.6343C76.8941 29.6343 77.5831 28.1457 77.7422 27.3334C77.8579 26.7958 77.8121 26.179 77.2234 26.179H77.2146Z" fill="#CECECE"/>
<path d="M39.9549 47.1038C39.304 47.2815 37.9724 47.841 37.929 48.9073C37.9147 49.5637 38.3891 49.9849 39.0804 50.0141C39.8033 50.0381 40.2777 49.6139 40.7215 48.8016C41.2874 47.7668 41.9974 47.0253 43.0811 47.071C44.3486 47.1201 45.3147 48.0384 45.2513 49.5608C45.2157 50.0661 45.0932 50.5615 44.8891 51.0252C44.4591 51.0523 43.9349 51.1026 43.1477 51.1734L43.0734 50.7434C43.7823 50.5537 44.6829 50.254 44.7146 49.3892C44.7418 48.7328 44.2545 48.3621 43.6416 48.3401C43.0531 48.3195 42.6133 48.686 42.1574 49.568C41.6036 50.6544 40.8687 51.374 39.6985 51.3258C38.3223 51.2712 37.3344 50.2223 37.3975 48.6574C37.4083 48.2839 37.4858 47.9153 37.6266 47.5692C37.7055 47.3505 37.8029 47.1389 37.9179 46.9368C38.2252 46.8594 39.0333 46.7612 39.8216 46.6794L39.9549 47.1038ZM43.9263 55.6441C44.1282 56.6868 43.114 57.4761 41.2874 57.8251C39.5536 58.1567 38.6333 57.7466 38.4774 56.9091C38.2637 55.8014 39.4479 54.9791 41.078 54.6672C42.6429 54.3662 43.766 54.7478 43.9263 55.6269V55.6441ZM44.3941 55.6923C44.0225 53.7173 42.1097 53.0969 40.5853 53.3879C38.8318 53.7186 37.6737 55.0945 38.003 56.824C38.314 58.4575 39.8524 59.4652 41.8369 59.0856C43.6646 58.7411 44.6963 57.2713 44.3946 55.7009L44.3941 55.6923ZM42.6592 66.3962C42.3878 66.509 42.1275 66.647 41.8818 66.8083C41.4195 66.3311 41.0316 65.787 40.7313 65.1943C39.9135 63.3908 40.511 61.7225 42.2765 60.9165C44.2683 60.0111 45.9482 60.9882 46.6863 62.6088C46.9113 63.125 47.0681 63.6682 47.153 64.2249C46.8717 64.3817 46.4366 64.6305 45.7203 65.0252L45.5315 64.7199C46.4781 63.9872 46.4966 63.2652 46.2076 62.648C45.7735 61.6862 44.5404 61.3635 42.9908 62.057C41.6276 62.6851 40.5853 63.8104 41.186 65.1058C41.2317 65.2489 41.3304 65.369 41.4619 65.4417C41.5506 65.476 41.6462 65.4886 41.7407 65.4784C41.8352 65.4681 41.9259 65.4354 42.0051 65.3828L42.7883 65.0295C43.3607 64.7679 43.4021 64.6959 43.1142 63.8496L43.4478 63.6971L44.5229 66.072L44.1981 66.2269C43.9265 65.8778 43.8831 65.8344 43.338 66.0872L42.6592 66.3962ZM46.0799 69.0414C46.7397 68.8037 47.3875 68.5595 48.0756 68.3196L48.0864 68.3422L46.8674 70.0649L46.0799 69.0414ZM46.5478 70.4961C46.3515 70.8164 46.1486 71.1327 45.9394 71.4447C45.7006 71.8222 45.5999 71.8482 45.2065 71.4601L44.9242 71.6826L46.4235 73.6214L46.7037 73.4012C46.4774 72.991 46.4235 72.8353 46.9239 72.0657C47.4692 71.2457 48.1518 70.2469 48.8302 69.2632L49.889 67.7168L49.4816 67.4052L44.5308 69.0212C43.7097 69.2874 43.5614 69.2109 43.1984 68.8445L42.9148 69.0604L44.1241 70.635L44.4066 70.4126C44.063 69.8761 44.1558 69.815 44.6074 69.6188C44.9681 69.4683 45.3531 69.3177 45.5865 69.2437L46.5478 70.4961ZM51.3111 72.2061C51.6938 71.724 51.8455 71.5429 51.864 71.2661C51.8792 70.9845 51.7484 70.7971 51.5053 70.5441L51.7244 70.265L52.9665 71.2681L52.8203 76.5765L52.8378 76.5916L53.8943 75.2897C54.2365 74.8757 54.5568 74.4441 54.854 73.9967C55.0382 73.6868 54.9642 73.4186 54.5398 73.0107L54.758 72.7337L56.4782 74.1295L56.2453 74.4088C55.9094 74.1687 55.6509 74.1469 55.3839 74.4043C54.9939 74.7838 54.6265 75.1858 54.2834 75.6082L51.9195 78.5176L51.4702 78.1511L51.769 72.4503L51.7493 72.4415L50.4888 74.0073C50.1436 74.4144 49.8273 74.8451 49.5422 75.2963C49.3372 75.6132 49.4125 75.8701 49.8433 76.2646L49.612 76.5461L47.8902 75.1415L48.1165 74.8624C48.4787 75.1152 48.7349 75.146 49.0042 74.885C49.3928 74.5125 49.7564 74.1147 50.0925 73.6943L51.3111 72.2061ZM59.4783 81.3439C59.3407 81.6001 59.2278 81.869 59.1413 82.1467C58.483 82.0645 57.8393 81.8912 57.2287 81.6318C55.4438 80.7617 54.8538 79.0802 55.7175 77.3442C56.6803 75.3771 58.592 75.0738 60.2035 75.8569C60.7005 76.1123 61.1626 76.4303 61.5786 76.8033C61.4609 77.1129 61.2721 77.5796 60.9876 78.3342L60.6354 78.2254C60.9113 77.0563 60.4609 76.485 59.8491 76.1795C58.9037 75.7216 57.7412 76.2494 56.9911 77.7758C56.3347 79.1174 56.2442 80.6483 57.521 81.2785C57.5836 81.32 57.6539 81.3487 57.7277 81.3629C57.8015 81.3771 57.8774 81.3766 57.951 81.3613C58.0784 81.3353 58.2061 81.2305 58.3335 80.9731L58.7131 80.1968C58.9901 79.6275 58.9824 79.5492 58.2192 79.0802L58.3795 78.7573L60.7185 79.9046L60.5571 80.2316C60.1286 80.1271 60.0718 80.1271 59.8068 80.6635L59.4783 81.3439ZM65.8281 78.4651C65.9546 77.4053 65.8734 77.3107 65.1006 77.1392L65.1563 76.7053L68.3502 77.09L68.2893 77.5328C67.5107 77.5133 67.3896 77.5873 67.2597 78.6407L66.96 81.1159C66.7527 82.8542 67.1583 83.8728 68.2893 84.0131C69.5029 84.1591 70.1679 83.2037 70.4004 81.2997L70.5432 80.1701C70.6149 79.5907 70.6452 79.0069 70.6337 78.4232C70.6294 78.0176 70.3995 77.8322 69.7057 77.6971L69.7558 77.2607L72.4263 77.5884L72.3729 78.0246C71.8365 77.9897 71.5715 78.1294 71.4569 78.5327C71.3244 79.0977 71.2215 79.6691 71.1484 80.2448L71.0033 81.4217C70.8637 82.5777 70.5661 83.5851 69.9031 84.1915C69.6199 84.4377 69.2866 84.6194 68.9262 84.7241C68.5659 84.8288 68.1871 84.854 67.816 84.7978C67.1017 84.7073 66.4442 84.4771 65.9698 83.9407C65.4856 83.3846 65.336 82.5231 65.5022 81.1732L65.8281 78.4651ZM74.1429 80.3364C74.0576 79.7278 74.0216 79.5033 73.8276 79.3005C73.6239 79.0968 73.4098 79.0628 73.0524 79.0714L72.9902 78.7181L74.5702 78.487L78.3859 82.1816H78.4085L78.1643 80.5281C78.0944 79.9919 77.9923 79.4603 77.8587 78.9363C77.7628 78.5968 77.5142 78.461 76.9253 78.513L76.8687 78.1509L79.0583 77.8324L79.1106 78.1946C78.6942 78.2819 78.5088 78.4565 78.5196 78.8283C78.5356 79.3733 78.5858 79.9166 78.6699 80.4553L79.2043 84.1564L78.631 84.2413L74.642 80.1717H74.6212L74.9125 82.1696C74.988 82.6972 75.0906 83.2206 75.2198 83.7376C75.3278 84.093 75.5689 84.2152 76.1358 84.1677L76.1904 84.5233L73.9996 84.8481L73.9419 84.4882C74.3683 84.3988 74.5625 84.2286 74.5569 83.8601C74.5499 83.3174 74.5045 82.776 74.4211 82.2397L74.1429 80.3364ZM80.9026 78.4782C80.6495 77.7313 80.547 77.686 79.9211 77.8327L79.8055 77.4968L82.3047 76.6462L82.4204 76.9909C81.8294 77.2571 81.7749 77.3485 82.0322 78.0988L83.201 81.5392C83.4541 82.2893 83.5546 82.3314 84.1743 82.1804L84.2963 82.5249L81.7991 83.3764L81.6834 83.0299C82.2701 82.7614 82.3289 82.6743 82.0716 81.9219L80.9026 78.4782ZM88.4877 80.6612C87.1486 79.4379 85.2773 77.7629 84.5335 77.102C83.9405 76.5765 83.7866 76.5765 83.3276 76.7596L83.1445 76.4413L85.3866 75.1874L85.5697 75.5079C85.0419 75.8787 85.0717 75.9484 85.3646 76.2363C85.7268 76.5916 87.1726 77.9003 88.1998 78.8032L88.2237 78.7901C88.0078 77.4999 87.7459 76.1752 87.552 75.316C87.4146 74.6899 87.3231 74.5897 86.6919 74.8798L86.5108 74.5571L88.3385 73.5451L88.5171 73.8547C88.0855 74.1798 87.9917 74.2995 88.1203 75.246C88.2228 75.9703 88.6067 78.3695 88.9643 80.393L88.4877 80.6612ZM90.3151 73.5123C89.7961 72.919 89.6814 72.919 89.1703 73.2964L88.9326 73.0173L92.007 70.3173C92.1249 70.4304 92.6181 70.9284 93.0584 71.3643L92.8094 71.6359C92.5815 71.4416 92.3086 71.3074 92.0156 71.2455C91.7974 71.2192 91.5489 71.3415 91.1933 71.6556L90.9296 71.8781C90.7071 72.0829 90.6897 72.1271 90.8991 72.362L92.1553 73.788L92.5871 73.4032C93.153 72.9102 93.143 72.8491 92.7456 72.2407L93.0095 71.9987L94.3988 73.5732L94.1237 73.8111C93.5547 73.3224 93.4979 73.3029 92.9309 73.8002L92.4905 74.185L93.6025 75.4409C93.9015 75.7899 94.0717 75.9253 94.2614 75.8687C94.4866 75.7722 94.691 75.6329 94.8632 75.4586C95.1468 75.2012 95.391 74.8914 95.3713 74.5883C95.3408 74.2394 95.2501 73.8985 95.1031 73.5806L95.4239 73.4107C95.6502 73.7486 96.1565 74.5876 96.2722 74.8348L92.9309 77.7704L92.6976 77.4999C93.2277 76.9416 93.2408 76.8411 92.7236 76.2481L90.3151 73.5123ZM94.7337 68.4767C94.5812 68.3635 94.5155 68.2936 94.5024 68.2062C94.505 68.0819 94.5522 67.9626 94.6355 67.8703C94.9071 67.5147 95.5429 67.2592 96.3041 67.8397C96.4788 67.9542 96.627 68.1047 96.7387 68.2811C96.8504 68.4576 96.923 68.6559 96.9516 68.8628C96.96 69.155 96.8545 69.4391 96.6574 69.655L96.5216 69.8318L94.7337 68.4767ZM97.2688 71.8439C97.8925 72.3192 97.9057 72.4306 97.5458 72.9998L97.8425 73.2158L99.4323 71.1199L99.1444 70.8996C98.6997 71.3815 98.5903 71.4035 97.958 70.9236L96.8523 70.0862L96.9655 69.9379C97.1354 69.7197 97.2905 69.6871 97.5915 69.7523C98.1238 69.8877 98.6643 69.9883 99.2096 70.0536C99.8943 70.1036 100.278 70.0294 100.987 69.1788C101.061 69.0916 101.116 69.0219 101.186 68.9524L100.941 68.7125C100.757 68.8267 100.543 68.8864 100.326 68.885C99.9023 68.8942 99.4785 68.8694 99.0586 68.8107C98.5528 68.7693 97.857 68.6211 97.5691 68.5665C97.6708 68.2322 97.6631 67.8742 97.5469 67.5446C97.4308 67.2151 97.2124 66.9312 96.9236 66.7345C96.7417 66.5808 96.5244 66.4746 96.2914 66.4255C96.0583 66.3764 95.8167 66.3859 95.5882 66.4532C95.1957 66.5797 94.8293 66.9025 94.3777 67.5L92.9187 69.4239L93.2066 69.6462C93.645 69.184 93.741 69.1577 94.3582 69.629L97.2688 71.8439ZM100.478 66.0777C101.028 66.1648 102.214 66.1845 102.606 65.3971C102.841 64.9152 102.623 64.4311 102.107 64.1846C101.566 63.9141 101.07 64.08 100.469 64.5359C99.6944 65.1443 98.9179 65.4539 98.1089 65.0657C97.1755 64.6033 96.7568 63.5871 97.3018 62.466C97.4955 62.0953 97.7557 61.7634 98.0695 61.4868C98.4011 61.6113 98.8165 61.7419 99.4305 61.9558L99.3454 62.3005C98.7458 62.2043 97.9693 62.1346 97.6531 62.7758C97.4197 63.2557 97.6682 63.6961 98.1132 63.9141C98.5516 64.1323 99.003 63.9969 99.6465 63.4868C100.419 62.853 101.203 62.5534 102.074 62.9829C103.099 63.4868 103.494 64.6033 102.92 65.7506C102.789 66.0329 102.607 66.2886 102.383 66.505C102.25 66.6421 102.106 66.7682 101.953 66.8823C101.694 66.8386 101.059 66.6404 100.437 66.4484L100.478 66.0777ZM99.9063 59.9056C99.1474 59.6637 99.058 59.7225 98.7984 60.3112L98.4539 60.2024L99.2651 57.69L99.6032 57.8032C99.4658 58.4269 99.5073 58.5358 100.262 58.7692L103.725 59.8782C104.479 60.1159 104.567 60.0614 104.831 59.4638L105.17 59.5815L104.367 62.0918L104.025 61.9828C104.158 61.3547 104.121 61.2521 103.364 61.0167L99.9063 59.9056ZM100.295 54.9594L100.262 55.1796C100.169 55.8338 100.269 56.0651 100.398 56.207C100.658 56.4186 100.954 56.5812 101.272 56.6868L101.222 57.0356C100.47 56.8962 99.8244 56.7477 99.3468 56.6649L99.373 56.4612C99.4623 56.4341 99.54 56.378 99.5937 56.3017C99.6475 56.2254 99.6742 56.1334 99.6695 56.0402L100.16 52.5618C100.183 52.4726 100.18 52.3786 100.15 52.2913C100.121 52.2039 100.067 52.1271 99.9946 52.07L100.014 51.8715C100.42 51.9249 101.214 51.9869 101.894 52.036L101.87 52.3893C101.336 52.421 101.022 52.4864 100.854 52.5998C100.673 52.7209 100.573 52.9946 100.509 53.4599L100.459 53.7913L104.867 54.4117C105.656 54.5248 105.739 54.4456 105.913 53.6856L106.267 53.7367L105.874 56.5818L105.517 56.525C105.543 55.7966 105.501 55.6921 104.714 55.5828L100.295 54.9594ZM104.037 48.7002C103.847 48.7065 103.661 48.7645 103.501 48.8682C102.973 49.1418 102.38 49.5051 101.359 50.1232C100.762 50.4885 100.718 50.5965 100.672 51.0512L100.312 51.0786L100.144 48.6262L100.505 48.5988C100.629 49.1746 100.718 49.1538 101.008 49.0024C101.647 48.6522 102.354 48.2378 102.96 47.8693C102.454 47.6557 101.506 47.2912 100.906 47.1201C100.557 47.0199 100.469 47.0405 100.439 47.6928L100.075 47.7211L99.9244 45.6448L100.295 45.6222C100.391 46.1577 100.521 46.2917 101.128 46.5728C101.758 46.8851 102.404 47.1621 103.065 47.4026C103.305 47.5229 103.576 47.5671 103.841 47.5291L104.938 47.4452C105.786 47.3874 105.839 47.3164 105.856 46.5412L106.216 46.5129L106.42 49.3421L106.051 49.3672C105.938 48.6386 105.875 48.5701 105.028 48.6343L104.037 48.7002ZM71.2258 20.8484C70.8981 20.9819 70.8981 21.0317 70.6116 21.034C70.486 21.0519 70.3581 21.0428 70.2363 21.0073C70.0876 20.9668 70.0425 20.962 69.8825 20.9199C69.6587 20.8593 69.1062 20.7789 69.0903 19.9845C69.0632 19.1309 69.0093 18.3014 69.1505 18.1423C69.2881 17.9791 69.2295 17.8315 69.2451 17.7077C69.254 17.5814 69.4165 17.5348 69.5045 17.5463C69.664 17.5893 69.8283 17.6121 69.9934 17.6142C70.119 17.5809 70.2464 17.5548 70.375 17.5361C70.4682 17.5539 70.5643 17.5499 70.6557 17.5243C70.7471 17.4988 70.8313 17.4524 70.9017 17.3888C70.9017 17.3888 71.3318 17.0524 71.3463 16.8082C71.3614 16.5552 71.2917 16.2406 70.7442 16.2424C70.327 16.2481 69.91 16.2254 69.4959 16.1745C69.2986 16.1482 69.1009 16.125 68.9029 16.105C68.7832 16.0661 68.6552 16.0608 68.5327 16.0895C68.4103 16.1182 68.298 16.1799 68.208 16.2679C67.9781 16.4977 68.027 16.6446 68.1035 16.7736C68.2246 16.9798 68.6657 17.1439 68.634 17.2439C68.6057 17.351 68.3927 17.4918 68.3486 17.5739C68.2904 17.6527 68.1843 17.7788 68.2382 17.9159C68.2598 17.9915 68.2593 18.0718 68.2368 18.1471C68.2143 18.2225 68.1707 18.2899 68.1112 18.3412C68.0016 18.5067 67.9535 18.7053 67.9754 18.9025L68.0093 20.7486C68.0093 20.7486 67.7954 22.0885 69.9699 22.1066C70.4613 22.1075 70.9517 22.0628 71.4348 21.9728C71.5902 21.9237 71.6346 21.7854 71.7444 21.6686C71.8143 21.5226 71.8317 21.3569 71.7937 21.1994C71.7831 21.1372 71.7594 21.0779 71.7241 21.0255C71.6888 20.9732 71.6428 20.9289 71.5891 20.8957C71.5353 20.8625 71.4752 20.8411 71.4125 20.8329C71.3499 20.8248 71.2863 20.8301 71.2258 20.8484ZM76.1107 18.7045C76.0775 17.9398 75.998 17.1779 75.8728 16.4228C75.8635 16.3775 75.9052 15.763 75.6399 15.7331C75.4992 15.7074 75.3543 15.7182 75.2189 15.7646C75.1736 15.7603 75.1278 15.7666 75.0853 15.7828C75.0427 15.799 75.0045 15.8249 74.9735 15.8582C74.9425 15.8916 74.9196 15.9317 74.9065 15.9753C74.8935 16.019 74.8906 16.065 74.8982 16.11C74.9197 16.4841 74.7966 16.8492 74.7993 17.1314C74.8031 17.281 74.8525 18.9304 74.9 19.5379C74.6524 19.5506 74.3287 19.5553 74.1219 19.5594C74.0979 18.2937 74.0159 16.4651 73.6445 16.2114C73.3625 16.0199 73.2747 15.9112 73.0406 15.9671C72.9908 15.9701 72.9426 15.9857 72.9005 16.0124C72.8583 16.0391 72.8237 16.0761 72.7998 16.1199C72.7658 16.1999 72.748 16.2858 72.7474 16.3727C72.7467 16.4596 72.7633 16.5458 72.7962 16.6262C72.8745 16.9261 72.8342 19.5438 72.8657 20.104C72.8971 20.6642 72.8786 21.9292 73.0126 22.0084C73.0825 22.059 73.1683 22.0827 73.2544 22.0752C73.3404 22.0677 73.4208 22.0294 73.4809 21.9674C73.6719 21.8069 74.0116 21.9308 74.173 21.7782C74.242 21.7132 74.1744 21.034 74.1486 20.7323C74.142 20.6844 74.1388 20.6362 74.1388 20.5879C74.1861 20.5652 74.2593 20.5381 74.3459 20.5001C74.5402 20.4317 74.7496 20.4179 74.9512 20.4604C74.9881 20.9989 75.0159 21.5795 75.0247 21.608C75.0258 21.6743 75.04 21.7398 75.0666 21.8007C75.0931 21.8615 75.1315 21.9164 75.1794 21.9623C75.2274 22.0082 75.2839 22.0442 75.3458 22.0681C75.4077 22.092 75.4738 22.1034 75.5401 22.1016C76.1243 22.1084 76.2087 21.9448 76.3167 21.4133C76.4246 20.8819 76.1383 19.5073 76.1107 18.7045ZM57.7208 22.3526C58.2351 22.0294 58.3387 21.3595 58.3093 20.8461C58.2849 20.3366 58.0198 19.1377 57.4967 18.9711C57.1054 18.843 56.9587 18.9349 56.9069 18.9618C56.7896 19.0245 56.6283 19.1893 56.5262 19.2285C56.2547 19.3134 55.992 19.4241 55.7417 19.5592C55.3366 19.7574 54.9158 19.9216 54.4835 20.0501C54.3137 20.0747 54.1419 20.0822 53.9706 20.0727C53.8149 20.0874 53.7153 20.3504 53.7153 20.3504C53.7153 20.3504 53.5041 20.969 53.6462 21.2601C53.782 21.5512 54.0007 21.6931 54.5774 21.4582C54.9015 21.3391 55.183 21.1264 55.3859 20.847C55.5738 20.6594 56.1629 19.9401 56.5402 19.9985C56.923 20.0517 57.0735 21.3362 56.8987 22.8189C56.8858 22.8209 56.9282 22.7612 57.341 22.502C57.5216 22.3841 57.6006 22.4294 57.7208 22.3526ZM62.7349 18.0266C62.6615 17.9648 62.6001 17.89 62.5538 17.8059C62.5102 17.7435 62.4571 17.6883 62.3965 17.6421C62.23 17.5029 61.8646 17.7263 61.7302 17.7629C61.5397 17.8236 61.3573 17.9072 61.187 18.0119C61.0226 18.1448 60.8366 18.2482 60.637 18.3177C60.4272 18.3856 60.2296 18.4926 60.0467 18.5569C59.9602 18.5848 59.876 18.6191 59.7948 18.6597C59.6816 18.4786 59.5655 18.3064 59.5005 18.2238C59.412 18.1305 58.9652 17.2211 58.4394 17.4698C58.2862 17.5416 58.2851 17.736 58.2457 17.8093C58.2083 18.1738 58.2618 18.5419 58.4012 18.8808C58.6777 19.508 58.9901 20.1188 59.3369 20.7101C59.3841 20.7916 59.451 20.8601 59.5315 20.9092C59.6119 20.9584 59.7033 20.9866 59.7975 20.9914C59.9532 20.9767 60.0996 20.9127 60.2171 20.8941C60.2916 20.8786 60.3604 20.843 60.416 20.7911C60.4717 20.7392 60.512 20.6731 60.5326 20.5999C60.6383 20.3335 60.5926 20.3099 60.5136 20.096C60.4398 19.9023 60.1863 19.3552 60.1381 19.2602C60.2259 19.2224 60.316 19.1904 60.4079 19.1644C60.7096 19.0614 61.062 19.1889 61.3006 19.2097C61.6134 19.1818 61.9171 19.0902 62.1931 18.9403C62.3531 18.8224 62.4235 18.6599 62.5618 18.5431C62.9413 18.229 62.7976 18.0818 62.7349 18.0266ZM60.5437 21.3203L59.9014 21.5027C59.8513 21.4188 59.7737 21.3548 59.6818 21.3217C59.6226 21.3245 59.5651 21.3428 59.5152 21.3748C59.4652 21.4068 59.4245 21.4513 59.3971 21.5039C59.3602 21.5781 58.8729 21.833 58.7133 22.0525C58.548 22.1838 58.4052 22.341 58.2903 22.5181C58.1262 22.7936 57.6427 23.763 58.4487 25.0246C59.1146 26.0497 60.3952 25.8057 60.6895 25.7199C61.1648 25.5796 62.2922 25.0409 62.6813 24.294C63.1023 23.4599 62.8012 22.7711 62.4649 22.2019C62.1301 21.6046 61.2332 21.1619 60.5437 21.3203ZM61.7039 23.5853C61.5152 24.2335 60.7363 24.5721 60.146 24.5608C59.4969 24.5531 59.1166 23.9653 59.1368 23.3461C59.1362 23.1713 59.1799 22.9992 59.2636 22.8457C59.3474 22.6923 59.4686 22.5626 59.616 22.4685C60.144 22.1775 60.1671 22.2114 60.1671 22.2114C60.8251 22.0586 60.9717 22.2309 61.1381 22.3203C61.2409 22.368 61.9226 22.8241 61.7039 23.5837V23.5853ZM84.9699 18.1085C85.0174 18.1612 85.0754 18.2033 85.14 18.2324C85.2047 18.2614 85.2748 18.2766 85.3457 18.2771C85.4166 18.2776 85.4868 18.2634 85.5519 18.2353C85.617 18.2072 85.6755 18.1659 85.7238 18.114C86.0201 17.7822 85.8823 17.4485 85.8248 17.2455C85.7439 17.0976 85.6235 16.9751 85.4769 16.8919C85.3303 16.8087 85.1634 16.7679 84.995 16.7743C84.995 16.7743 84.5591 16.853 84.6258 17.2455C84.6786 17.5542 84.7958 17.8482 84.9699 18.1085ZM82.7769 23.0828C83.0013 23.1397 83.2327 23.1637 83.464 23.1541C83.6401 23.1138 83.8219 23.1052 84.0009 23.1285C84.188 23.1275 84.3721 23.082 84.5382 22.9959C84.7042 22.9097 84.8474 22.7853 84.9558 22.6329C85.1832 22.2917 85.3147 21.8957 85.3364 21.4863C85.3581 21.0769 85.2694 20.6692 85.0794 20.3059C84.9336 20.0762 84.7658 19.8613 84.5783 19.6642C84.352 19.4659 84.9099 19.6671 85.0111 19.7072C85.1 19.7525 85.4146 19.9537 85.6448 19.7513C85.8827 19.5381 85.7883 19.5841 85.9522 19.5023C86.0758 19.4331 86.1172 19.2907 85.9868 19.0531C85.8806 18.83 85.7027 18.649 85.4814 18.539C85.2116 18.3962 84.5308 18.0782 84.2936 17.9544C84.0564 17.8306 83.2807 17.4291 83.2807 17.4291C83.2807 17.4291 82.6696 17.0812 82.4688 17.5576C82.2676 18.03 82.1972 18.3118 82.5657 18.6441C82.7763 18.8308 83.0064 18.9942 83.2522 19.1314C82.7297 19.1847 82.2371 19.401 81.8444 19.7497C81.3346 20.1571 80.8887 21.0503 81.2724 21.8275C81.4269 22.1265 81.6396 22.3915 81.8979 22.607C82.1563 22.8226 82.4551 22.9844 82.7769 23.0828ZM82.6234 20.7192C82.7044 20.5292 82.8553 20.3778 83.045 20.2962C83.2346 20.2145 83.4484 20.209 83.6419 20.2807C84.4835 20.575 84.5745 21.2601 84.4724 21.6198C84.3393 22.0747 84.1281 22.1643 84.0297 22.1569C83.8828 22.1323 83.7344 22.1171 83.5856 22.1116C83.4457 22.1206 83.4468 22.2248 83.2551 22.1729C83.1461 22.1524 83.0429 22.1081 82.9529 22.0431C82.863 21.9782 82.7884 21.8942 82.7345 21.7972C82.5895 21.5514 82.3532 21.2721 82.6234 20.7192ZM89.4025 22.9101C89.1056 22.4846 88.7461 22.387 88.0778 22.0048C87.751 21.8418 87.4779 21.5886 87.2908 21.275C87.473 20.8774 87.6287 20.5227 87.6873 20.3622C87.855 19.9159 88.2618 19.2079 88.1452 18.5705C88.0483 17.9852 87.686 18.2348 87.6767 18.2462C87.5771 18.3778 87.4627 18.4974 87.3356 18.6026C87.2278 18.6617 87.0122 18.8317 87.0083 18.9471C87.0083 18.9471 86.1231 20.929 85.6989 22.0007C85.1691 23.3533 85.0745 23.6487 85.325 23.7392C85.421 23.7778 85.5245 23.7944 85.6278 23.7878C85.7311 23.7811 85.8315 23.7515 85.9219 23.701C86.0648 23.6567 86.194 23.5765 86.2971 23.468C86.4001 23.3595 86.4736 23.2263 86.5104 23.0812C86.5583 22.9101 86.7498 22.4735 86.9673 21.993C87.2224 22.1403 87.248 22.1761 87.3947 22.5303C87.5539 22.9881 87.8864 23.3652 88.3206 23.5805C88.9605 23.8985 89.2321 23.7308 89.3247 23.6179C89.4219 23.5298 89.4835 23.4092 89.4979 23.2788C89.5122 23.1484 89.4783 23.0172 89.4025 22.9101ZM86.516 24.8865C86.516 24.8865 86.3736 24.8372 86.2138 24.7765C86.0259 24.713 85.8515 24.6147 85.6998 24.4868C85.2157 24.19 84.7076 23.9341 84.1809 23.7218C83.5858 23.4715 82.9649 23.2873 82.3296 23.1724C81.8597 23.0781 81.8025 23.3012 81.7583 23.3578C81.7583 23.3578 81.4897 23.7249 82.0879 23.9603C82.5406 24.1414 82.7443 23.9194 83.369 24.2136C83.9968 24.4981 85.0043 24.7374 85.3429 24.9531C85.6942 25.1756 85.7682 25.3096 85.6283 25.652C85.4896 26.0028 85.1455 26.7031 85.1455 26.7031C85.1455 26.7031 85.0265 27.0942 85.3236 27.2011C85.4345 27.2416 85.5526 27.2586 85.6704 27.2512C85.7882 27.2437 85.9032 27.212 86.0081 27.1578C86.2797 27.0383 86.5452 26.3672 86.6213 26.2072C86.7003 26.0508 87.0595 25.3756 86.516 24.8865ZM47.7265 28.8672C47.7265 28.8672 47.4751 29.0274 47.3938 28.8018C47.3938 28.8018 47.1659 28.0308 46.7064 27.7153C46.7064 27.7153 46.3617 27.379 46.031 27.4313C45.8239 27.4553 45.8416 27.5671 45.8273 27.5915C45.8339 27.6954 45.8654 27.6782 45.9231 27.8468C46.0136 28.1273 46.0482 28.2192 45.9846 29.3927C45.9247 30.4357 45.9572 30.308 45.9197 30.6419C45.8859 30.8814 45.8432 31.8451 46.2345 32.1905C46.5727 32.4915 46.9473 32.5217 47.2139 32.1491C47.4588 31.7992 47.3821 31.4547 47.4176 31.1928C47.424 30.9761 47.4597 30.7613 47.524 30.5543C47.5995 30.3731 47.7312 30.2209 47.8996 30.1201C48.0681 30.0193 48.2645 29.9752 48.4599 29.9943C48.9046 30.0353 49.0638 30.2453 49.1584 30.8707C49.2082 30.9629 49.2453 31.0613 49.2688 31.1634C49.2404 31.5708 49.136 31.9692 48.9612 32.3383C48.7519 32.7027 48.6724 32.5782 48.5538 32.7174C48.3993 33.0311 48.3407 33.3833 48.3852 33.7301C48.4612 33.9743 48.5663 34.0768 49.0131 34.0282C49.3243 33.9933 49.5164 33.8048 49.7876 33.2507C50.0108 32.7994 50.3 31.6075 50.1823 30.9194C50.0901 30.1833 49.7187 29.5108 49.1448 29.0408C48.9509 28.877 48.7135 28.7734 48.4615 28.7425C48.2096 28.7117 47.9542 28.755 47.7265 28.8672ZM52.8937 27.7165C52.2495 27.1572 50.6303 25.549 50.6303 25.549C49.8186 24.781 49.0126 24.6482 48.765 24.6663C48.6779 24.6995 48.6024 24.7576 48.548 24.8333C48.4937 24.909 48.4628 24.9991 48.4592 25.0923C48.4225 25.4458 48.748 25.7244 48.9003 25.8702C49.0527 26.016 49.0979 26.0089 49.2048 26.1952C49.3179 26.3763 49.3465 26.4001 49.899 26.9195C50.0121 27.0352 49.9972 27.2749 49.7833 27.4788C49.5766 27.687 49.0982 28.2563 49.0982 28.2563C49.0982 28.2563 49.1326 28.187 49.016 28.3787C48.8997 28.5639 49.159 28.6121 49.2896 28.6709C49.3667 28.7107 49.4513 28.7337 49.5379 28.7382C49.6245 28.7428 49.7111 28.7289 49.7919 28.6974C50.0077 28.6434 50.2122 28.5514 50.3958 28.4258C50.5875 28.2563 50.8598 27.9537 50.8598 27.9537C51.0094 27.8815 51.0431 27.8364 51.1597 27.9095C51.2708 27.9835 52.8554 29.4923 53.1417 29.6193C53.2268 29.664 53.3239 29.6807 53.419 29.667C53.5142 29.6533 53.6025 29.6099 53.6716 29.543C53.7848 29.4654 53.9622 29.5369 53.9681 29.0512C53.9738 28.431 53.5292 28.2816 52.8937 27.7165ZM95.7588 26.8781C95.9471 27.0637 95.8946 27.1062 95.9942 27.2219C96.2092 27.4256 96.4377 27.6146 96.678 27.7877C96.9464 27.9915 97.5299 28.5799 97.5209 28.7748C97.5007 28.9534 97.5365 29.2635 96.7765 30.096C95.9438 31.0283 95.8304 31.15 95.819 31.4124C95.8089 31.684 95.8123 31.6487 95.9216 31.8091C96.0495 31.9902 96.1914 32.1174 96.6232 31.8349C96.8842 31.6223 97.1575 31.4253 97.4417 31.2449C97.8202 31.0164 98.1362 30.6975 98.3613 30.3169C98.6442 29.8723 98.8497 29.1895 98.2594 28.307C97.914 27.7997 97.8796 27.8615 97.7289 27.6347C97.5741 27.4098 96.905 26.8102 96.6699 26.5372C96.4435 26.264 96.178 25.8998 96.0515 25.772C95.9705 25.6921 95.7971 25.7548 95.6961 25.8281C95.6252 25.8579 95.5655 25.9095 95.5256 25.9753C95.4857 26.0411 95.4676 26.1178 95.4739 26.1945C95.4793 26.4502 95.5811 26.6943 95.7588 26.8781ZM92.1358 27.5779C92.1517 27.7029 92.2065 27.8197 92.2924 27.9118C92.4099 28.0125 92.6319 27.9455 92.7297 27.9686C92.888 28.0015 93.0502 28.0108 93.2112 27.996C93.3331 27.9722 93.3621 27.9179 93.3599 27.8201C93.3522 27.7165 93.5579 27.4387 93.6398 27.2735C93.672 27.1709 93.6816 27.0625 93.6677 26.9558C93.6539 26.8492 93.617 26.7468 93.5597 26.6558C93.4712 26.5427 93.3277 26.5291 93.1041 26.7079C92.9846 26.8074 92.8393 26.8711 92.6851 26.8914C92.5691 26.9061 92.4589 26.9505 92.365 27.0203C92.2712 27.0901 92.197 27.1829 92.1496 27.2898C92.1172 27.3825 92.1124 27.4826 92.1358 27.5779Z" fill="#CECECE"/>
<path d="M97.5712 33.9979C97.477 33.8506 97.4687 33.7559 97.3675 33.6106C97.2693 33.4495 96.1679 32.4493 95.8963 32.1865C95.7512 32.0371 95.0244 31.1983 94.0328 30.2072C94.1096 30.2221 94.1883 30.2249 94.266 30.2155C94.4407 30.1954 94.6176 30.2047 94.7893 30.2431C94.8753 30.257 95.5633 29.8047 95.5986 29.4557C95.6238 29.177 95.6156 28.8962 95.5742 28.6194C95.553 28.5603 95.5176 28.5072 95.4712 28.4649C95.4247 28.4226 95.3686 28.3924 95.3078 28.3767C95.247 28.3611 95.1832 28.3606 95.1221 28.3753C95.0611 28.39 95.0045 28.4194 94.9574 28.4609C94.8438 28.5332 94.7142 28.5765 94.5799 28.587C94.3572 28.6676 94.1659 28.8171 94.0337 29.0137C93.9388 29.1983 93.8303 29.3756 93.7092 29.5442C93.6639 29.6076 93.6114 29.6943 93.5734 29.7599C92.9375 29.1373 92.266 28.5521 91.5623 28.0074C91.4013 27.9048 91.2613 27.7727 91.1497 27.6178C91.0261 27.4243 91.1284 27.1905 90.8005 27.0726C90.6767 27.0652 90.5525 27.0704 90.4297 27.0882C90.2591 27.1108 90.2448 27.2025 90.1753 27.224C90.0968 27.245 89.8553 27.3098 89.9637 27.561C90.0628 27.8113 90.0938 27.9797 90.217 28.0873C90.3247 28.1961 90.4152 28.4191 90.5542 28.5429C90.7108 28.668 91.1504 28.905 91.4016 29.0985C91.6529 29.2921 93.8857 31.2035 94.2988 31.668C94.7116 32.1272 96.3625 33.8804 96.6086 34.2213C96.6592 34.3236 96.737 34.4099 96.8336 34.4708C96.9301 34.5316 97.0415 34.5647 97.1556 34.5662C97.255 34.5834 97.3571 34.5767 97.4534 34.5465C97.5496 34.5163 97.6373 34.4635 97.709 34.3926C97.774 34.3037 97.6726 34.1509 97.5712 33.9979Z" fill="#CECECE"/>
<path d="M84.9982 57.088C84.979 56.9543 84.9527 56.8218 84.9197 56.691C84.7409 55.9845 84.5206 55.256 84.2807 54.4853C83.4659 51.7536 82.3724 48.6566 82.3724 44.1562C82.3724 41.5556 82.9046 39.471 83.5435 36.4414C82.8192 35.6606 80.8523 33.6203 80.222 32.9434H63.7825C63.1501 33.6203 61.1795 35.6594 60.4587 36.4414C61.0999 39.4708 61.6386 41.5567 61.6386 44.1562C61.6386 48.6566 60.546 51.7536 59.7183 54.4853C59.4883 55.2548 59.2656 55.9845 59.0825 56.691C59.0825 56.691 59.0476 56.8306 59.0062 57.0757L71.9957 44.4516L84.9982 57.088Z" fill="#CECECE"/>
<path d="M59.7728 62.5367C60.0616 63.158 60.4184 63.7453 60.8366 64.2879C62.8318 66.9368 66.3668 68.9874 69.2053 70.4788C70.3447 71.0718 71.2618 71.3728 71.9945 71.8569V71.8612H72.0153V71.8569C72.7383 71.3728 73.6586 71.0718 74.8014 70.4788C77.6376 68.987 81.1685 66.9368 83.1619 64.287C83.583 63.7479 83.94 63.1617 84.2257 62.5401L71.9941 50.9868L59.7728 62.5367Z" fill="#CECECE"/>
<path d="M63.7965 37.0028C63.7965 36.6909 63.7639 36.582 63.4706 36.5567V36.451H64.9393V36.5666C64.6396 36.5906 64.6079 36.6943 64.6079 37.0193V41.0083C64.6079 41.3234 64.6306 41.428 64.9275 41.4542V41.5753H63.4706V41.4588C63.7648 41.4391 63.7965 41.3377 63.7965 41.0138V37.0028ZM69.0297 38.6897V37.0281C69.0297 36.7086 69.0524 36.6029 68.7875 36.58V36.4512H70.1551V36.58C69.8552 36.6026 69.8258 36.7086 69.8258 37.0281V40.9982C69.8258 41.3232 69.8552 41.4234 70.1506 41.454V41.5751H68.7047V41.4585C69.0078 41.4388 69.0297 41.3374 69.0297 41.0135V39.0507H67.0755V41.0135C67.0755 41.3374 67.092 41.4388 67.3734 41.4585V41.5751H65.9553V41.4714C66.2507 41.4463 66.2804 41.3395 66.2804 41.0287V37.0191C66.2804 36.6943 66.2618 36.5906 65.9519 36.5664V36.4508H67.3134V36.5565C67.0569 36.5818 67.0755 36.6907 67.0755 37.0026V38.6895L69.0297 38.6897ZM70.8092 40.627C70.8889 40.8343 71.4024 41.3739 72.2159 41.3739C72.3353 41.3804 72.4547 41.3612 72.5659 41.3174C72.6772 41.2737 72.7777 41.2065 72.8606 41.1203C72.9435 41.0342 73.0068 40.9312 73.0463 40.8184C73.0858 40.7055 73.1005 40.5855 73.0894 40.4665C73.0894 39.942 72.7166 39.6064 72.1442 39.316C71.5455 39.0052 70.782 38.5659 70.782 37.783C70.782 37.0134 71.4004 36.3523 72.4941 36.3523C72.8439 36.3604 73.1907 36.4177 73.5246 36.5223C73.5518 36.831 73.5844 36.9989 73.6151 37.2332L73.4793 37.2529C73.3888 37.0184 73.1229 36.6499 72.3594 36.6499C72.253 36.6479 72.1473 36.6679 72.049 36.7086C71.9507 36.7494 71.8619 36.81 71.7881 36.8866C71.7143 36.9633 71.6571 37.0544 71.6202 37.1542C71.5832 37.254 71.5673 37.3603 71.5733 37.4666C71.5733 37.9367 71.9332 38.2289 72.5045 38.5077C73.1871 38.8382 73.9003 39.2635 73.9003 40.1374C73.9003 41.0348 73.1534 41.6826 72.0749 41.6826C71.8299 41.6841 71.586 41.6503 71.3506 41.5823C71.1661 41.5407 70.9858 41.4823 70.8119 41.4078C70.7537 41.1613 70.7104 40.9115 70.6822 40.6598L70.8092 40.627ZM75.8036 60.1499L75.4295 61.2402C75.6855 61.276 75.9392 61.3262 76.1895 61.3907L75.5522 63.1093C75.5522 63.1093 74.3023 62.8999 73.1009 62.8377L73.1688 60.9794C73.3795 60.9795 73.5901 60.9926 73.7992 61.0188L73.9266 59.9304C73.2911 59.8803 72.6538 59.8556 72.0163 59.8563C71.3837 59.8563 70.7488 59.8803 70.1232 59.9304L70.2486 61.0188C70.4529 60.9929 70.6587 60.9797 70.8647 60.9794L70.9389 62.8377C69.7438 62.9008 68.4996 63.1093 68.4996 63.1093L67.8475 61.3891C68.2369 61.2986 68.6142 61.2406 68.6142 61.2406L68.2414 60.1519C66.9029 60.3631 65.5849 60.6878 64.3015 61.1225C65.9067 63.3384 67.4594 66.4134 67.4594 66.4134C70.4699 65.8279 73.5651 65.8279 76.5757 66.4134C77.4985 64.5743 78.556 62.8058 79.7394 61.1225C78.4586 60.6832 77.1416 60.3578 75.8036 60.1499Z" fill="white"/>
<path d="M101.914 38.9338C101.904 39.111 101.842 39.2813 101.736 39.4233C101.629 39.5653 101.483 39.6726 101.316 39.7315C101.148 39.7904 100.967 39.7984 100.795 39.7544C100.623 39.7104 100.468 39.6164 100.35 39.4843C100.231 39.3522 100.154 39.188 100.129 39.0123C100.104 38.8366 100.131 38.6574 100.208 38.4973C100.284 38.3372 100.407 38.2034 100.559 38.1128C100.712 38.0222 100.888 37.9789 101.065 37.9883C101.183 37.9943 101.299 38.0236 101.405 38.0744C101.512 38.1252 101.607 38.1966 101.686 38.2845C101.765 38.3724 101.826 38.475 101.865 38.5864C101.904 38.6978 101.921 38.8159 101.914 38.9338ZM43.5515 39.1601C43.5417 39.3372 43.4796 39.5075 43.3731 39.6493C43.2665 39.7912 43.1203 39.8983 42.953 39.9571C42.7856 40.0159 42.6045 40.0237 42.4327 39.9796C42.2609 39.9356 42.1059 39.8415 41.9875 39.7094C41.8691 39.5773 41.7925 39.4131 41.7674 39.2375C41.7424 39.0618 41.7699 38.8827 41.8466 38.7227C41.9233 38.5628 42.0457 38.4291 42.1983 38.3387C42.3509 38.2483 42.5269 38.2051 42.7041 38.2147C42.8218 38.221 42.9372 38.2505 43.0435 38.3014C43.1499 38.3524 43.2452 38.4238 43.3239 38.5116C43.4026 38.5994 43.4632 38.7019 43.5023 38.8132C43.5413 38.9245 43.558 39.0423 43.5515 39.1601Z" fill="#CECECE"/>
</g>
<defs>
<clipPath id="clip0_408_512">
<rect width="75.9934" height="76" fill="white" transform="translate(34 12)"/>
</clipPath>
</defs>
</svg>
