<svg width="212" height="100" viewBox="0 0 212 100" fill="none" xmlns="http://www.w3.org/2000/svg">
<path d="M85.0622 46.8759H79.358L81.3612 37H33.0976L28 62.5128H47.2407L48.5493 55.9288H37.1797L37.8298 52.6369H49.2069L50.3615 46.8759H39.0108L39.6593 43.5839H57.7257L53.944 62.5128H61.7896L65.5696 43.5839H72.156L68.376 62.5128H76.2817L78.2379 52.6369H83.9404L81.9858 62.5128H89.8536L94.9545 37H87.0653L85.0622 46.8759ZM118.724 40.292H121.349L121.999 37H119.387L118.724 40.292ZM125.455 40.292H128.082L128.73 37H126.118L125.455 40.292ZM150.004 40.292H152.628L153.28 37H150.666L150.004 40.292ZM163.141 45.1542C158.561 45.1542 155.347 48.3968 154.319 54.0524C154.157 54.9376 154.074 55.8355 154.072 56.7354C154.072 60.5985 156.403 63 160.163 63C161.239 63.0028 162.304 62.7884 163.296 62.3695C164.287 61.9506 165.183 61.3359 165.931 60.5623L165.954 60.5376L164.498 58.7533L164.472 58.7221L164.444 58.7517C163.947 59.3737 163.317 59.8761 162.6 60.2217C161.883 60.5673 161.097 60.7472 160.301 60.7483C158.509 60.7483 156.594 59.6734 156.594 56.6646C156.601 55.7918 156.693 54.9218 156.871 54.0672C157.14 52.2336 157.913 50.5106 159.103 49.0898C159.583 48.5609 160.168 48.1382 160.821 47.8488C161.474 47.5594 162.181 47.4097 162.895 47.4092C163.58 47.3783 164.26 47.5422 164.855 47.8819C165.451 48.2216 165.938 48.7231 166.26 49.3284L166.282 49.363L168.135 47.7894L168.161 47.7664L168.142 47.7384C167.609 46.9062 166.866 46.2292 165.988 45.7755C165.11 45.3218 164.128 45.1075 163.141 45.1542ZM179.892 44.7847C178.971 44.7392 178.052 44.8913 177.194 45.2308C176.337 45.5704 175.563 46.0895 174.923 46.7533L176.892 37H174.354L169.254 62.5128H171.792L173.909 51.7949C174.816 47.2783 178.32 47.0496 179.012 47.0496C179.424 47.0075 179.841 47.0568 180.232 47.1941C180.623 47.3313 180.98 47.553 181.275 47.8434C181.571 48.1339 181.8 48.486 181.944 48.8746C182.088 49.2633 182.145 49.679 182.111 50.0922C182.098 50.6361 182.039 51.178 181.933 51.7118L179.78 62.5128H182.315L184.542 51.4773C184.657 50.9041 184.717 50.3212 184.72 49.7366C184.766 49.0852 184.673 48.4314 184.448 47.8183C184.224 47.2051 183.872 46.6464 183.416 46.1788C182.96 45.7112 182.41 45.3453 181.803 45.105C181.196 44.8648 180.545 44.7556 179.892 44.7847ZM145.675 62.4708L145.666 62.5136H148.169L151.585 45.2307H149.124L145.675 62.4708ZM99.7748 47.6528L99.7674 47.6997H108.262L97.0622 60.4273L97.0573 60.4339L96.6367 62.5136H108.699L109.174 60.0446H100.157L111.39 47.317L111.395 47.3088L111.817 45.2307H100.244L99.7748 47.6528ZM141.508 45.0201C140.604 44.9963 139.707 45.1817 138.887 45.5617C138.067 45.9418 137.346 46.5062 136.78 47.2109L137.168 45.2694L137.175 45.2307H134.706L131.293 62.4708L131.286 62.5136H133.792L135.879 51.9381C136.414 49.2264 138.487 47.257 140.812 47.257C141.281 47.2457 141.745 47.3499 142.164 47.5602C142.583 47.7706 142.944 48.0808 143.215 48.4635L143.239 48.4947L145.271 46.6644L145.252 46.6397C144.792 46.103 144.216 45.6783 143.567 45.3976C142.918 45.117 142.214 44.9879 141.508 45.0201ZM126.39 45.2307H128.928L128.922 45.2719L125.511 62.5136H123.042L123.05 62.4708L123.377 60.6767C122.745 61.359 121.972 61.8955 121.112 62.2485C120.252 62.6016 119.325 62.7628 118.397 62.721C117.753 62.7498 117.111 62.6421 116.512 62.405C115.913 62.1679 115.371 61.8067 114.922 61.3452C114.473 60.8836 114.126 60.3323 113.905 59.7273C113.684 59.1223 113.594 58.4773 113.64 57.8349C113.647 57.3093 113.707 56.7857 113.818 56.272L113.847 56.1156L116.005 45.2307H118.509L118.501 45.2719L116.38 55.8868C116.279 56.4134 116.222 56.9475 116.21 57.4835C116.178 57.8934 116.237 58.3054 116.382 58.6901C116.527 59.0748 116.755 59.4228 117.05 59.7094C117.345 59.996 117.699 60.2141 118.088 60.3483C118.476 60.4825 118.89 60.5294 119.299 60.4857C119.978 60.4857 123.405 60.2586 124.299 55.8004L126.39 45.2307Z" fill="#CECECE"/>
</svg>
